<?xml version="1.0" standalone="no"?>
<!DOCTYPE svg PUBLIC "-//W3C//DTD SVG 20010904//EN"
 "http://www.w3.org/TR/2001/REC-SVG-20010904/DTD/svg10.dtd">
<svg version="1.0" xmlns="http://www.w3.org/2000/svg"
 width="1080.000000pt" height="1080.000000pt" viewBox="0 0 1080.000000 1080.000000"
 preserveAspectRatio="xMidYMid meet">

<g transform="translate(0.000000,1080.000000) scale(0.100000,-0.100000)"
fill="#000000" stroke="none">
<path d="M5225 10570 c-33 -3 -71 -11 -85 -17 -14 -6 -60 -11 -102 -11 -295 0
-807 -94 -1188 -219 -41 -13 -107 -33 -146 -43 -79 -21 -330 -117 -409 -155
-27 -13 -97 -45 -155 -71 -58 -26 -121 -57 -140 -69 -19 -12 -87 -50 -150 -85
-63 -35 -135 -78 -160 -95 -25 -18 -81 -54 -125 -81 -144 -86 -475 -332 -625
-463 -397 -349 -806 -846 -1037 -1261 -89 -160 -165 -310 -157 -310 4 0 1 -7
-6 -15 -10 -12 -10 -15 0 -15 10 0 10 -3 0 -15 -7 -8 -9 -15 -5 -15 4 0 2 -6
-5 -14 -6 -8 -18 -12 -26 -9 -10 4 -14 -2 -14 -20 0 -14 -4 -28 -8 -31 -9 -5
-57 -109 -150 -326 -67 -157 -154 -431 -198 -630 -20 -91 -45 -202 -55 -247
-27 -121 -58 -334 -79 -543 -11 -102 -24 -205 -29 -230 -6 -25 -10 -108 -10
-185 0 -131 3 -169 28 -335 5 -36 13 -123 16 -195 10 -211 57 -496 126 -770
23 -88 42 -167 44 -175 2 -8 17 -55 34 -104 17 -50 31 -97 31 -105 1 -30 86
-232 95 -224 4 4 5 3 2 -3 -6 -10 77 -230 107 -284 8 -14 28 -61 45 -105 17
-45 44 -102 61 -128 17 -26 41 -70 55 -98 16 -30 30 -47 37 -43 6 4 8 3 5 -4
-10 -15 3 -42 20 -42 8 0 12 -4 8 -9 -3 -5 2 -17 11 -25 8 -9 13 -16 9 -16 -3
0 -1 -9 5 -21 7 -11 17 -18 25 -16 8 4 11 -1 8 -13 -3 -11 4 -32 14 -47 11
-15 37 -59 58 -98 45 -82 104 -168 195 -283 36 -46 85 -109 109 -140 195 -253
593 -653 845 -849 273 -214 547 -391 834 -540 158 -83 208 -105 437 -200 138
-57 485 -175 613 -207 242 -62 587 -124 822 -146 63 -6 158 -16 210 -22 397
-45 993 8 1555 139 260 60 621 181 830 278 28 13 97 44 155 70 121 54 168 79
492 263 48 27 125 78 208 137 248 176 247 174 443 339 184 153 504 475 637
640 58 71 119 146 136 165 67 79 269 374 338 496 133 232 235 426 278 530 182
436 236 599 330 995 75 320 138 843 138 1156 0 130 -4 200 -31 484 -50 551
-200 1132 -414 1605 -12 28 -37 84 -55 125 -18 41 -47 102 -65 135 -18 33 -54
101 -80 150 -26 50 -63 113 -82 142 -18 28 -33 54 -33 58 0 4 -19 37 -43 73
-24 37 -65 100 -91 140 -187 290 -541 693 -856 977 -304 273 -697 544 -1090
753 -259 137 -826 355 -1060 407 -9 1 -67 15 -130 29 -472 105 -1084 167
-1355 136z m-1452 -1965 c-3 -9 -8 -14 -10 -11 -3 3 -2 9 2 15 9 16 15 13 8
-4z m2262 -295 c-3 -5 -11 -10 -16 -10 -6 0 -7 5 -4 10 3 6 11 10 16 10 6 0 7
-4 4 -10z m7 -50 c-13 -11 -30 -16 -40 -13 -13 6 -10 9 13 19 43 19 53 16 27
-6z m63 -2 c-6 -22 -5 -22 8 1 8 13 16 19 18 13 2 -6 21 -12 41 -14 20 -1 34
-6 32 -10 -3 -4 4 -8 16 -8 12 0 18 -4 15 -10 -3 -5 -4 -10 -1 -10 2 0 12 -3
22 -7 12 -4 15 -3 10 5 -4 7 7 5 28 -5 20 -9 36 -23 36 -30 0 -7 7 -13 15 -13
8 0 15 -4 15 -10 0 -5 5 -10 10 -10 6 0 27 -10 48 -23 20 -13 58 -30 84 -37
31 -9 47 -19 45 -29 -1 -7 5 -16 13 -18 13 -4 13 -3 0 7 -13 10 -13 11 0 7 8
-2 14 -12 14 -21 -1 -9 2 -16 7 -16 5 0 9 -9 9 -19 0 -10 8 -22 18 -26 16 -6
16 -7 -1 -20 -10 -7 -14 -16 -8 -19 5 -3 11 -1 13 5 2 7 13 9 25 5 15 -5 31
-31 54 -89 18 -45 36 -87 40 -92 5 -6 10 -26 13 -45 3 -19 9 -51 15 -70 5 -19
18 -63 27 -97 10 -35 23 -63 29 -63 6 0 24 -27 39 -60 15 -33 32 -60 38 -60 6
0 7 -7 4 -16 -3 -8 -2 -12 4 -9 15 9 12 -16 -3 -29 -7 -6 -10 -10 -8 -9 2 1
13 -2 23 -8 14 -8 17 -14 10 -21 -8 -8 -4 -17 14 -30 13 -11 22 -23 19 -28 -3
-5 2 -13 10 -18 9 -5 17 -16 19 -26 1 -10 9 -22 17 -27 8 -5 9 -9 2 -9 -6 0
-9 -8 -6 -19 3 -13 10 -18 21 -14 11 5 14 2 9 -10 -4 -10 3 -21 17 -31 13 -8
25 -28 28 -43 3 -24 0 -28 -17 -28 -12 1 -27 5 -34 9 -18 11 -26 -1 -12 -18 7
-8 10 -19 7 -24 -3 -5 11 -28 30 -51 43 -49 38 -52 -13 -9 -21 18 -32 26 -25
18 16 -19 16 -35 -1 -21 -8 6 -17 8 -20 4 -4 -3 1 -11 10 -18 16 -12 27 -59
11 -49 -4 3 -8 1 -8 -5 0 -5 14 -19 30 -31 23 -16 30 -28 28 -48 -2 -15 -7
-30 -12 -34 -6 -4 -5 -12 3 -21 8 -10 8 -17 2 -22 -7 -4 -7 -12 1 -24 8 -13 8
-26 0 -51 -10 -27 -9 -35 6 -49 10 -9 13 -13 6 -8 -8 5 -11 -26 -10 -124 l2
-131 -44 5 c-23 2 -51 12 -61 21 -24 22 -39 20 -43 -6 -2 -18 -10 -23 -33 -23
-16 0 -30 5 -30 10 0 6 -4 16 -8 23 -5 6 -5 17 -1 24 4 7 3 8 -5 4 -29 -18
-61 4 -88 62 -17 34 -60 90 -107 140 -80 84 -142 122 -246 153 -22 7 -40 16
-40 21 0 11 28 10 35 -2 3 -5 12 -10 18 -10 7 0 1 9 -13 20 -14 11 -30 18 -37
15 -7 -2 -15 0 -18 5 -4 6 -15 10 -27 10 -14 0 -18 5 -14 15 6 17 -5 20 -20 6
-15 -15 -74 -24 -74 -12 0 6 -8 11 -17 11 -15 0 -16 2 -3 10 18 12 2 12 -25 0
-11 -5 -14 -9 -7 -9 17 -1 15 -21 -3 -21 -8 0 -15 5 -15 10 0 6 -16 10 -35 10
-26 0 -35 4 -35 17 0 13 -3 14 -12 5 -7 -7 -30 -11 -52 -11 -39 1 -39 2 -11 9
l30 7 -25 6 c-14 4 -51 9 -83 11 -32 3 -64 9 -70 14 -14 10 -102 -20 -90 -32
4 -4 0 -4 -9 -1 -9 4 -14 13 -11 21 7 19 -14 18 -25 -2 -6 -10 -12 -13 -16 -6
-3 5 -15 8 -27 5 -12 -3 -24 -1 -28 4 -9 15 -51 26 -51 14 0 -6 3 -10 8 -10
20 3 32 -2 32 -16 0 -8 -4 -15 -10 -15 -5 0 -10 4 -10 10 0 6 -9 6 -22 1 -13
-5 -22 -14 -20 -21 1 -6 -2 -9 -8 -5 -6 3 -8 10 -5 15 3 4 -4 10 -15 13 -10 3
-21 0 -23 -7 -3 -6 -5 5 -4 24 0 19 5 38 11 42 20 14 35 8 31 -12 -2 -11 0
-20 6 -20 14 0 10 32 -6 54 -19 25 -19 40 -1 33 10 -4 13 -1 10 7 -3 8 0 17 5
21 8 4 5 15 -9 32 -15 19 -17 30 -10 44 13 24 30 34 30 17 0 -7 7 -2 16 10 8
12 22 22 30 22 8 0 14 6 13 13 -1 6 3 25 10 42 15 36 7 77 -14 69 -8 -4 -15
-1 -15 6 0 6 -8 10 -17 8 -24 -5 -19 -22 8 -28 12 -3 25 -12 27 -19 3 -10 0
-12 -12 -8 -11 4 -26 -4 -46 -24 -16 -17 -34 -28 -39 -24 -6 3 -11 -1 -11 -11
0 -9 -8 -23 -17 -30 -16 -12 -16 -15 -3 -23 12 -9 12 -11 -4 -17 -14 -5 -15
-9 -4 -16 9 -6 7 -7 -8 -3 -15 4 -24 0 -28 -11 -9 -23 -36 1 -36 32 0 13 -5
24 -12 24 -6 0 -3 7 8 15 18 14 18 14 0 15 -12 0 -16 5 -12 15 5 13 2 13 -27
0 -25 -12 -28 -13 -14 -2 10 8 22 28 26 45 8 26 7 29 -9 25 -10 -3 -21 0 -24
6 -4 6 0 11 11 11 15 0 15 2 3 9 -8 6 -18 7 -22 5 -4 -3 -8 2 -8 11 0 9 4 14
9 11 13 -8 41 40 38 65 -1 12 -13 34 -27 48 -23 23 -23 26 -7 29 14 3 17 10
13 27 -3 13 -2 27 4 30 6 3 7 -1 4 -12 -4 -15 -3 -14 7 2 7 11 17 23 22 26 5
4 6 16 2 28 -6 19 -23 26 -48 22 -5 -1 -6 3 -2 9 3 5 2 10 -4 10 -13 0 -7 33
7 38 17 5 15 22 -3 22 -8 0 -15 7 -15 16 0 8 4 13 9 10 11 -7 20 14 14 31 -3
6 -12 9 -21 5 -14 -5 -15 -3 -5 10 7 8 10 17 7 20 -3 3 3 5 13 5 13 -2 18 4
17 21 -1 12 2 22 6 22 4 0 10 9 13 20 3 11 1 20 -4 20 -5 0 -4 12 2 27 7 18 6
28 -1 33 -7 4 -1 13 15 24 23 15 24 18 10 32 -19 20 -19 20 8 21 12 0 17 -1
10 -4 -9 -3 -10 -9 -1 -23 9 -14 15 -16 25 -8 11 8 12 7 7 -8 -5 -14 -4 -16 5
-8 9 8 9 17 0 37 -7 15 -17 27 -22 27 -5 0 -2 11 6 24 15 22 15 25 -1 31 -10
3 -21 0 -28 -9 -14 -20 -24 -20 -24 -1 0 8 4 15 10 15 5 0 7 8 4 18 -5 13 -4
14 4 4 7 -11 14 -9 31 9 15 17 18 26 10 33 -8 8 -13 7 -16 -1 -3 -7 -12 -13
-20 -13 -13 0 -13 3 -3 15 10 12 9 18 -7 32 -10 10 -14 14 -7 10 7 -4 15 -3
19 3 3 5 2 10 -3 10 -14 0 -10 29 5 34 7 3 13 10 13 15 0 6 -7 8 -15 5 -8 -4
-15 -2 -15 4 0 5 9 12 20 15 11 3 20 2 20 -3 0 -13 36 -18 55 -8 12 7 20 7 25
-1 5 -8 14 -9 33 -2 15 6 27 9 27 7 0 -3 3 -13 6 -23 5 -15 4 -15 -5 -3 -5 8
-13 11 -18 7 -13 -14 20 -26 41 -15 18 10 18 12 3 23 -15 11 -16 14 -2 25 12
10 18 10 30 0 8 -7 12 -17 9 -24 -3 -6 1 -3 9 7 8 9 17 17 21 17 12 0 6 -24
-11 -43 -13 -15 -14 -18 -3 -12 8 5 23 19 33 32 10 13 27 23 38 23 11 0 17 5
14 10 -4 6 -11 8 -16 5 -5 -4 -9 -2 -9 4 0 17 20 23 35 11 8 -7 12 -17 8 -23
-3 -6 -1 -7 6 -3 6 4 18 3 26 -4 16 -13 30 3 30 34 0 11 6 21 14 24 10 3 12 0
8 -12 -7 -19 -3 -20 24 -6 15 9 19 7 19 -7 1 -17 1 -17 11 0 5 9 19 17 30 17
11 0 18 4 15 9 -3 5 1 12 10 15 11 4 15 2 11 -6 -3 -9 7 -14 29 -15 21 -2 34
2 34 9 0 13 49 57 63 58 5 0 6 -10 2 -22z m402 -113 c17 -9 37 -22 43 -30 16
-19 4 -33 -12 -17 -7 7 -20 12 -30 12 -15 0 -38 27 -38 44 0 9 4 8 37 -9z
m420 -386 c-4 -10 -8 -7 -12 9 -4 12 -11 22 -16 22 -5 0 -9 6 -9 12 0 7 9 3
21 -9 12 -11 19 -27 16 -34z m-1557 -23 c0 -2 -7 -7 -16 -10 -8 -3 -12 -2 -9
4 6 10 25 14 25 6z m-30 -50 c0 -3 -4 -8 -10 -11 -5 -3 -10 -1 -10 4 0 6 5 11
10 11 6 0 10 -2 10 -4z m-4592 -94 c13 11 14 11 10 -2 -5 -15 -58 -25 -58 -10
0 12 24 19 28 8 2 -5 11 -3 20 4z m0 -46 c-10 -7 -14 -17 -10 -22 4 -5 3 -6
-2 -1 -5 4 -19 -1 -31 -10 -11 -10 -6 -3 12 15 18 17 36 32 40 32 5 0 0 -7 -9
-14z m6472 -61 c0 -5 -5 -3 -10 5 -5 8 -10 20 -10 25 0 6 5 3 10 -5 5 -8 10
-19 10 -25z m-6449 -7 c21 19 30 14 12 -7 -9 -11 -23 -17 -31 -13 -10 3 -13 1
-8 -6 4 -7 1 -12 -8 -12 -19 0 -21 11 -4 28 9 9 7 13 -5 18 -9 3 -14 10 -11
15 3 5 14 -1 24 -13 15 -19 21 -21 31 -10z m-76 -18 c-3 -5 -12 -10 -18 -10
-7 0 -6 4 3 10 19 12 23 12 15 0z m15 -44 c0 -3 -4 -8 -10 -11 -5 -3 -10 -1
-10 4 0 6 5 11 10 11 6 0 10 -2 10 -4z m52 -41 c-14 -22 -25 -41 -24 -42 7
-10 -1 -23 -13 -23 -8 0 -15 5 -15 11 0 5 -4 8 -8 5 -4 -2 -9 4 -9 16 -2 19
-1 18 19 -4 15 -16 19 -18 15 -5 -8 21 2 49 14 41 5 -3 9 4 9 15 0 10 -6 22
-12 25 -7 2 1 4 18 3 l32 -1 -26 -41z m6128 35 c0 -5 -2 -10 -4 -10 -3 0 -8 5
-11 10 -3 6 -1 10 4 10 6 0 11 -4 11 -10z m-6095 -58 c-3 -3 -11 0 -18 7 -9
10 -8 11 6 5 10 -3 15 -9 12 -12z m-30 -32 c-3 -5 -1 -10 4 -10 6 0 11 5 11
12 0 7 7 5 18 -6 10 -11 13 -20 6 -22 -13 -6 -2 -90 14 -106 8 -8 9 -15 1 -25
-9 -9 -8 -13 0 -13 9 0 9 -5 1 -20 -8 -15 -8 -20 2 -20 8 0 9 -3 3 -8 -17 -12
-23 -76 -11 -103 5 -13 0 -20 -21 -28 -27 -11 -27 -11 -2 -6 23 4 26 2 22 -19
-4 -17 -10 -23 -20 -19 -11 4 -14 2 -11 -8 3 -8 13 -13 22 -13 18 2 22 -11 6
-21 -5 -3 -10 -15 -10 -26 0 -11 -7 -19 -16 -19 -15 0 -15 -3 1 -26 14 -22 15
-28 4 -36 -11 -7 -11 -11 -1 -15 6 -2 12 -12 12 -21 -1 -15 -2 -15 -15 2 -8
10 -19 15 -26 10 -7 -4 -10 -3 -5 4 3 6 2 13 -4 17 -5 3 -10 -1 -10 -10 0 -9
-5 -13 -10 -10 -6 4 -8 11 -5 16 3 5 -1 6 -10 3 -11 -5 -14 -2 -9 10 3 9 10
14 14 11 5 -3 12 0 16 6 4 8 3 9 -4 5 -6 -4 -16 4 -23 16 -10 19 -10 21 2 12
8 -6 23 -14 33 -18 15 -5 17 -4 8 7 -7 8 -8 18 -4 22 4 5 -1 5 -10 2 -22 -8
-33 10 -18 28 8 10 9 15 2 15 -7 0 -9 8 -5 18 6 15 5 15 -10 3 -9 -7 -17 -9
-17 -3 0 15 26 33 35 24 4 -4 2 3 -4 16 -8 14 -8 22 -1 23 5 1 15 3 20 4 6 1
13 3 18 4 8 2 -19 21 -31 21 -5 0 -5 -4 -2 -10 3 -5 4 -10 1 -10 -3 0 -10 10
-17 21 -6 12 -7 19 -1 15 5 -3 13 1 16 10 4 10 2 13 -6 8 -7 -5 -9 0 -6 14 3
12 2 22 -4 24 -5 2 -10 14 -11 26 -1 13 -9 30 -19 38 -13 13 -15 22 -7 41 5
14 7 34 3 45 -6 20 23 51 38 42 11 -7 10 8 -2 26 -8 12 -10 12 -16 -3 -3 -9
-10 -17 -15 -17 -5 0 -4 9 3 20 9 13 19 18 35 14 16 -4 25 -1 29 10 3 9 10 16
16 16 5 0 6 -4 3 -10z m4838 -194 c4 -10 1 -13 -8 -9 -8 3 -12 9 -9 14 7 12
11 11 17 -5z m-315 -22 c1 -1 -11 -1 -27 0 -22 1 -27 4 -19 14 8 10 14 10 27
0 9 -7 17 -13 19 -14z m273 -17 c-10 -9 -11 -8 -5 6 3 10 9 15 12 12 3 -3 0
-11 -7 -18z m-401 -2 c7 -8 17 -11 24 -7 22 14 56 9 56 -10 0 -22 13 -23 30
-3 7 8 17 15 23 15 7 0 7 -4 -1 -12 -17 -17 -15 -33 3 -18 12 10 15 9 15 -4 0
-34 -74 -41 -83 -7 -3 11 -5 9 -6 -6 0 -13 -6 -23 -12 -23 -8 0 -7 -5 2 -16
11 -13 9 -14 -16 -8 -20 5 -26 4 -21 -5 5 -7 -1 -10 -16 -8 -42 4 -43 77 -1
77 7 0 13 -7 11 -16 -2 -10 3 -19 11 -22 10 -3 11 2 6 19 -11 36 -21 42 -45
29 -20 -11 -22 -10 -17 5 4 9 7 21 7 26 0 14 16 11 30 -6z m230 -76 c0 -6 -4
-7 -10 -4 -5 3 -10 11 -10 16 0 6 5 7 10 4 6 -3 10 -11 10 -16z m-54 -6 c-3
-7 -1 -15 4 -18 16 -10 12 -35 -5 -29 -8 4 -12 10 -9 15 3 5 0 9 -6 9 -7 0 -9
7 -6 16 3 8 2 12 -4 9 -6 -3 -10 -2 -10 4 0 5 9 9 20 8 12 -1 18 -7 16 -14z
m-89 -28 c-4 -8 -12 -15 -19 -15 -9 0 -8 3 2 10 8 5 11 10 7 10 -5 0 -5 5 -2
11 10 15 19 3 12 -16z m53 15 c0 -5 -7 -10 -15 -10 -8 0 -15 5 -15 10 0 6 7
10 15 10 8 0 15 -4 15 -10z m251 -28 c-7 -2 -18 1 -23 6 -8 8 -4 9 13 5 13 -4
18 -8 10 -11z m-248 1 c-20 -7 -15 -26 5 -21 9 3 26 -4 37 -14 20 -19 20 -19
-9 -8 -20 7 -32 8 -40 0 -7 -7 -3 -10 11 -10 12 0 24 -3 26 -7 9 -16 -6 -73
-18 -73 -13 0 -31 -36 -27 -52 3 -13 -16 -9 -30 5 -7 8 -18 12 -24 10 -15 -5
-25 22 -17 44 5 14 8 13 14 -5 11 -28 22 -28 55 3 15 14 22 25 16 25 -6 0 -17
-7 -26 -15 -19 -20 -23 -19 -29 6 -3 12 -10 19 -14 16 -5 -3 -8 6 -7 21 2 44
3 45 25 39 17 -5 18 -3 8 10 -15 17 3 33 36 32 11 0 14 -3 8 -6z m213 -29 c-9
-8 -21 -12 -28 -8 -8 5 -6 10 8 15 31 12 37 10 20 -7z m-342 0 c9 -3 16 -12
16 -20 0 -17 -12 -18 -28 -2 -22 22 -16 33 12 22z m-28 -39 c13 -13 13 -15 1
-15 -8 0 -17 7 -21 15 -3 8 -3 15 0 15 3 0 12 -7 20 -15z m2139 5 c3 -5 1 -10
-4 -10 -6 0 -11 5 -11 10 0 6 2 10 4 10 3 0 8 -4 11 -10z m-2187 -19 c3 -8 -1
-12 -9 -9 -7 2 -15 10 -17 17 -3 8 1 12 9 9 7 -2 15 -10 17 -17z m272 0 c0 -6
-4 -13 -10 -16 -5 -3 -10 1 -10 9 0 9 5 16 10 16 6 0 10 -4 10 -9z m103 -14
c7 3 4 -3 -5 -14 -10 -11 -18 -25 -18 -31 0 -19 -18 -14 -30 8 -6 11 -7 20 -3
19 26 -4 35 1 24 15 -9 11 -9 15 1 18 7 3 14 -1 16 -9 2 -7 9 -10 15 -6z m-63
3 c0 -5 -8 -10 -17 -10 -15 0 -16 2 -3 10 19 12 20 12 20 0z m-230 -35 c-7 -9
-15 -13 -18 -10 -3 2 1 11 8 20 7 9 15 13 18 10 3 -2 -1 -11 -8 -20z m2120 11
c0 -3 -4 -8 -10 -11 -5 -3 -10 -1 -10 4 0 6 5 11 10 11 6 0 10 -2 10 -4z
m-6613 -38 c-3 -8 -6 -5 -6 6 -1 11 2 17 5 13 3 -3 4 -12 1 -19z m4513 12 c0
-5 -5 -10 -11 -10 -5 0 -7 5 -4 10 3 6 8 10 11 10 2 0 4 -4 4 -10z m194 -15
c-39 -31 -58 -36 -24 -6 19 16 36 28 39 25 2 -2 -4 -11 -15 -19z m31 -32 c6
-17 7 -17 16 0 6 9 15 17 21 17 6 0 8 -3 5 -7 -4 -3 1 -15 10 -25 16 -18 16
-19 -3 -12 -15 5 -16 4 -4 -5 22 -16 28 -14 32 10 3 20 6 19 43 -16 32 -30 35
-36 17 -30 -21 6 -23 5 -13 -13 6 -11 16 -23 23 -25 8 -3 6 -6 -4 -6 -21 -1
-20 -18 2 -42 10 -12 28 -16 58 -15 23 1 48 -1 54 -5 7 -5 18 -3 25 3 11 8 12
7 7 -8 -6 -16 -5 -17 7 -6 7 6 19 12 26 12 8 0 -3 -15 -23 -32 -21 -18 -54
-58 -73 -88 -36 -55 -36 -55 -78 -49 -23 3 -40 2 -38 -2 12 -18 -59 -1 -75 19
-13 15 -20 18 -23 10 -4 -8 -6 -7 -6 3 -1 11 -13 19 -36 23 -19 4 -37 12 -41
18 -4 6 -3 8 4 4 6 -3 4 7 -4 23 -11 21 -12 35 -5 48 5 10 13 32 17 48 5 21 8
25 11 13 5 -19 23 -25 23 -8 0 5 -5 30 -12 55 -8 30 -17 44 -25 41 -7 -3 -13
-1 -13 5 0 7 10 9 25 5 29 -7 52 23 33 42 -8 8 -9 12 -1 12 6 0 14 -8 18 -17z
m-158 -24 c-2 -25 -19 -30 -37 -11 -13 14 -12 15 3 9 15 -6 17 -3 12 13 -5 15
-3 18 9 14 8 -3 14 -14 13 -25z m-4487 -29 c0 -5 -5 -10 -11 -10 -5 0 -7 5 -4
10 3 6 8 10 11 10 2 0 4 -4 4 -10z m480 -10 c0 -5 -2 -10 -4 -10 -3 0 -8 5
-11 10 -3 6 -1 10 4 10 6 0 11 -4 11 -10z m-44 -9 c-3 -5 1 -12 10 -15 10 -4
13 -2 8 6 -5 7 -2 9 8 5 9 -3 21 0 28 6 10 9 12 8 7 -6 -6 -15 -4 -16 13 -7
14 8 20 8 20 0 0 -13 54 -4 58 10 2 5 8 7 13 4 6 -3 0 -14 -12 -25 -19 -17
-20 -20 -5 -34 16 -17 21 -10 17 25 -3 20 24 -18 33 -48 4 -12 12 -20 17 -17
5 4 9 4 9 1 0 -2 3 -12 6 -20 5 -12 2 -15 -10 -10 -9 3 -16 1 -16 -5 0 -6 -7
-11 -15 -11 -17 0 -20 31 -4 47 8 8 8 13 0 17 -6 4 -11 2 -11 -4 0 -6 -5 -8
-12 -4 -7 5 -9 2 -5 -8 4 -12 -2 -18 -21 -23 -15 -4 -21 -10 -14 -12 18 -7 15
-20 -8 -26 -10 -3 -25 2 -31 10 -10 11 -14 11 -21 1 -6 -9 -8 -8 -6 6 2 10 -3
21 -10 23 -8 3 -10 -1 -5 -14 3 -10 3 -15 -2 -11 -4 4 -14 3 -22 -3 -9 -9 -13
-8 -13 0 0 6 -7 11 -16 11 -13 0 -15 -6 -10 -27 5 -20 4 -24 -3 -13 -8 12 -12
10 -20 -10 -9 -24 -10 -24 -10 -3 -1 12 4 25 9 28 6 3 10 11 10 17 0 6 -3 8
-7 5 -11 -11 -32 14 -26 30 5 12 3 14 -8 8 -25 -16 -49 -13 -50 7 -2 30 -4 36
-10 43 -4 3 -9 -5 -11 -19 -3 -14 -1 -23 3 -20 5 3 6 -1 3 -9 -3 -9 -13 -13
-25 -10 -13 4 -19 0 -19 -11 0 -9 -4 -16 -9 -16 -5 0 -7 9 -4 21 3 12 0 24 -6
29 -10 5 -9 9 3 13 9 4 15 3 15 -1 -3 -21 3 -24 16 -6 19 25 19 35 0 28 -8 -4
-15 -2 -15 4 0 5 16 10 35 10 19 0 32 -4 29 -9 -3 -5 0 -9 6 -9 6 0 9 -3 6 -8
-2 -4 2 -16 10 -27 8 -10 14 -14 14 -8 0 7 -5 15 -11 19 -8 4 -7 9 2 15 9 6
10 9 2 9 -6 0 -10 7 -9 15 4 25 14 28 26 6 14 -28 28 -26 36 4 3 14 10 23 14
20 5 -3 11 -1 15 5 3 5 8 10 11 10 3 0 3 -4 0 -9z m6114 -101 c-6 -23 -13 -40
-15 -38 -3 2 0 20 5 39 6 18 11 52 12 74 l1 40 4 -37 c2 -20 -1 -55 -7 -78z
m-6162 82 c6 -18 -15 -14 -22 4 -4 10 -1 14 6 12 6 -2 14 -10 16 -16z m269 11
c-4 -3 -1 -13 6 -22 11 -14 10 -14 -5 -2 -21 15 -23 31 -6 31 6 0 8 -3 5 -7z
m-685 -25 c7 7 16 12 21 12 5 0 1 -7 -7 -16 -23 -23 -19 -40 4 -19 16 15 23
16 33 6 9 -10 8 -16 -8 -28 -16 -13 -17 -15 -2 -10 9 4 17 2 17 -3 0 -5 6 -10
13 -13 6 -2 4 -3 -5 -2 -10 2 -18 -1 -18 -6 0 -5 8 -9 18 -9 15 0 19 -7 17
-35 -1 -20 -10 -44 -20 -55 -21 -23 -11 -27 12 -5 8 8 19 13 24 10 5 -4 9 -1
9 6 0 10 3 10 11 2 8 -8 5 -17 -9 -31 -14 -14 -22 -17 -25 -9 -3 9 -8 9 -20
-1 -9 -8 -22 -10 -29 -6 -10 6 -9 3 1 -9 11 -14 16 -15 29 -5 9 7 7 -1 -6 -19
-12 -17 -22 -35 -22 -40 0 -14 -40 -44 -50 -38 -12 7 -13 26 -2 23 15 -3 42
14 36 24 -3 5 -12 1 -20 -9 -7 -10 -14 -16 -14 -13 -9 38 -8 40 23 41 30 0 31
1 8 10 -15 6 -21 14 -17 25 3 8 2 12 -4 9 -5 -3 -14 4 -20 16 -8 14 -18 19
-31 16 -15 -4 -18 -2 -10 7 6 7 8 16 4 19 -3 4 -1 7 4 7 6 0 14 -6 16 -12 3
-7 4 2 2 21 -5 43 -12 49 -25 20 l-11 -24 5 25 c3 14 -1 31 -11 42 -19 22 -8
24 13 3 9 -8 21 -15 27 -15 7 0 3 7 -8 16 -16 12 -17 17 -7 23 8 5 14 12 15
17 1 5 5 8 10 7 11 -4 9 15 -3 22 -5 3 -10 12 -10 18 0 7 7 3 15 -7 12 -16 18
-17 27 -8z m4599 -5 c-12 -20 -14 -14 -5 12 4 9 9 14 11 11 3 -2 0 -13 -6 -23z
m952 20 c-7 -2 -21 -2 -30 0 -10 3 -4 5 12 5 17 0 24 -2 18 -5z m54 -9 c-3 -3
-12 -4 -19 -1 -8 3 -5 6 6 6 11 1 17 -2 13 -5z m-67 -16 c0 -6 11 -7 27 -4 14
4 29 3 32 -3 3 -5 20 -7 36 -3 l30 6 -25 8 c-21 6 -19 7 8 3 53 -7 132 -50
205 -110 110 -91 157 -185 157 -312 0 -87 -14 -142 -65 -249 -54 -111 -135
-193 -247 -248 -225 -111 -504 -71 -685 98 -18 16 -33 25 -33 19 0 -17 111
-126 165 -161 54 -35 145 -67 154 -54 8 13 41 11 41 -2 0 -6 4 -5 9 3 5 8 18
12 31 8 39 -10 194 12 258 37 85 34 192 107 246 168 83 95 146 247 146 355 l0
51 108 -2 c59 -2 113 -4 119 -5 25 -2 45 -75 48 -180 4 -100 17 -161 36 -161
5 0 9 -6 9 -12 -1 -7 -9 -3 -19 10 -11 12 -21 22 -24 22 -2 0 -5 -56 -6 -125
-1 -69 -6 -137 -11 -151 -6 -14 -7 -30 -4 -35 3 -6 0 -17 -7 -25 -10 -12 -10
-20 -1 -35 7 -10 8 -19 3 -19 -13 0 -37 -113 -37 -169 1 -27 -1 -48 -4 -46 -8
5 -6 -88 2 -100 3 -5 3 -25 1 -44 -4 -20 -8 -28 -13 -21 -4 7 -12 11 -17 9 -6
-2 -2 -21 8 -44 16 -34 17 -35 12 -10 -3 17 -2 26 3 22 11 -10 13 -98 2 -91
-4 3 -8 12 -8 20 0 8 -4 14 -9 14 -5 0 -7 -10 -3 -22 3 -14 2 -19 -6 -14 -16
9 -16 -26 -1 -41 16 -16 3 -43 -21 -43 -17 0 -20 -6 -20 -46 0 -34 -4 -45 -13
-41 -9 3 -13 -10 -15 -52 -1 -31 -5 -68 -8 -83 -3 -14 0 -29 5 -33 6 -3 11
-14 11 -23 -1 -13 -6 -11 -25 11 -29 33 -32 33 -38 5 -2 -13 -3 -9 -2 7 3 26
-2 33 -26 44 -16 7 -29 19 -29 27 0 8 -4 14 -9 14 -4 0 -6 -11 -3 -25 2 -14 7
-23 10 -21 7 7 42 -34 42 -48 0 -6 -7 -3 -14 7 -11 15 -15 15 -19 3 -3 -8 1
-20 9 -26 17 -15 19 -57 2 -62 -9 -3 -8 -9 4 -21 15 -15 15 -20 3 -44 -8 -15
-11 -39 -8 -56 8 -37 -10 -30 -33 14 -12 25 -18 28 -30 18 -11 -9 -14 -7 -14
14 0 25 -22 52 -33 40 -4 -3 -7 -2 -7 4 0 6 -7 14 -16 17 -10 4 -13 2 -8 -6 4
-7 8 -22 9 -33 0 -21 -1 -21 -27 -6 -15 9 -28 19 -28 24 0 4 -4 7 -10 7 -5 0
-10 -9 -10 -20 0 -13 5 -18 15 -14 8 4 15 1 15 -5 0 -6 6 -11 13 -11 7 0 21
-13 30 -30 10 -16 14 -30 8 -30 -5 0 -13 5 -16 10 -10 16 -25 2 -18 -17 11
-29 -45 16 -59 48 -7 16 -19 29 -25 29 -15 0 -17 -17 -3 -22 5 -1 11 -13 13
-26 2 -13 10 -28 18 -33 9 -6 10 -9 2 -9 -8 0 -10 -7 -6 -17 7 -17 6 -17 -11
-1 -9 10 -18 26 -19 36 0 10 -6 19 -13 19 -14 0 -12 -23 4 -39 7 -7 12 -18 12
-25 0 -7 7 -13 17 -13 14 0 13 -2 -3 -18 -11 -9 -19 -29 -19 -44 1 -16 -3 -28
-7 -28 -4 0 -8 4 -8 9 0 5 -7 11 -14 14 -18 7 -11 -18 13 -48 8 -11 10 -15 2
-9 -7 7 -21 9 -32 7 -18 -5 -19 -7 -4 -30 l16 -24 -25 16 c-23 15 -25 22 -20
56 4 24 3 39 -4 39 -5 0 -8 -9 -5 -19 3 -11 -1 -26 -9 -34 -11 -13 -15 -13
-31 1 -9 8 -29 17 -43 18 l-26 3 23 -25 c13 -13 29 -22 37 -19 7 2 10 0 7 -5
-8 -13 -45 -13 -45 1 0 5 -5 7 -10 4 -6 -4 -7 -12 -3 -18 13 -22 12 -39 -3
-33 -8 3 -14 -1 -14 -9 0 -20 -17 -19 -29 3 -7 11 -11 12 -11 4 0 -7 7 -20 15
-28 8 -9 15 -21 15 -29 0 -14 -29 -29 -38 -20 -3 3 0 5 6 5 7 0 12 5 12 10 0
6 -6 10 -14 10 -16 0 -27 22 -32 63 -4 28 4 34 21 18 6 -6 11 3 12 26 1 27 -1
33 -10 24 -16 -16 -37 -14 -31 4 4 8 15 15 27 15 l20 0 -20 23 c-24 26 -36 57
-23 57 6 0 10 5 10 10 0 6 -5 10 -10 10 -6 0 -20 9 -32 20 -12 11 -17 20 -10
20 7 0 9 10 6 30 -4 17 -2 30 4 30 5 0 10 12 10 26 0 34 -41 74 -67 67 -12 -3
-36 4 -56 16 -28 16 -35 17 -35 6 0 -8 -4 -15 -10 -15 -5 0 -10 9 -10 19 0 10
-7 22 -16 25 -28 11 -85 6 -100 -8 -7 -8 -23 -12 -34 -9 -14 4 -20 1 -18 -8 2
-10 -5 -13 -21 -11 -15 2 -21 0 -17 -7 10 -16 -1 -14 -30 6 -21 13 -27 14 -34
3 -5 -9 -10 -3 -15 19 -4 20 -13 31 -24 31 -9 0 -25 6 -35 13 -20 15 -62 11
-73 -6 -4 -6 0 -8 11 -4 10 4 15 3 11 -3 -8 -13 -45 -13 -45 0 0 6 -7 10 -15
10 -18 0 -18 5 -5 30 7 14 6 20 -8 26 -9 4 -21 6 -25 5 -5 -1 -6 2 -4 6 3 5
-1 14 -9 21 -11 10 -14 10 -14 0 0 -6 -7 -3 -16 8 -15 18 -15 18 -5 -3 15 -30
14 -36 -6 -29 -17 6 -17 5 0 -8 25 -19 21 -26 -7 -13 -13 7 -22 15 -20 19 3 4
-1 5 -9 2 -16 -6 -31 22 -21 38 4 7 -5 8 -25 3 -37 -8 -38 -4 -9 21 12 10 18
13 14 7 -4 -7 -3 -13 3 -13 5 0 14 6 18 13 4 6 16 13 25 13 10 1 16 -2 13 -6
-3 -5 -2 -11 3 -14 5 -3 21 14 36 37 24 36 27 39 26 17 -3 -38 -2 -39 31 -30
25 7 30 6 25 -5 -3 -9 0 -12 10 -8 7 3 14 11 14 18 0 8 8 11 20 8 13 -4 20 0
20 10 0 8 7 20 15 27 9 8 15 9 15 2 0 -6 -4 -14 -10 -17 -14 -9 -12 -34 3 -31
6 1 19 6 27 11 8 5 27 10 42 10 22 0 27 -4 22 -18 -6 -18 -5 -18 19 -2 14 9
28 26 31 38 5 18 8 19 15 7 12 -18 17 -13 26 22 6 23 4 26 -17 24 -12 -2 -33
-6 -45 -10 -22 -7 -29 4 -24 37 0 4 -3 7 -9 7 -5 0 -12 0 -15 0 -3 0 -14 9
-24 19 -12 12 -27 17 -40 14 -12 -3 -21 -1 -21 6 0 5 -6 8 -14 5 -8 -3 -16 4
-19 17 -4 15 -11 20 -23 15 -9 -3 -23 -1 -31 5 -10 9 -16 9 -26 -3 -7 -7 -19
-19 -27 -25 -13 -10 -16 -8 -15 10 0 12 -4 23 -9 24 -5 0 -13 8 -18 17 -5 9
-16 16 -23 16 -18 0 -20 20 -2 20 6 0 1 10 -13 21 -17 14 -21 22 -12 26 6 2
12 12 12 20 0 16 -20 14 -72 -6 -38 -14 -43 -12 -39 17 6 44 5 124 -2 170 -5
34 -3 42 10 42 15 0 15 2 0 18 -12 13 -13 22 -5 36 8 14 7 17 -1 12 -6 -4 -11
-2 -11 5 0 6 -7 17 -15 23 -14 10 -13 15 9 44 23 32 24 36 11 80 -8 26 -13 61
-11 79 1 17 0 31 -3 31 -20 -2 -21 5 -6 28 20 31 11 46 -11 18 -15 -18 -15
-18 -9 6 4 14 7 37 7 53 -1 15 3 27 9 27 6 0 9 10 8 23 -1 12 3 34 9 48 5 14
12 36 14 50 3 21 -1 24 -22 21 -24 -3 -24 -3 -6 11 12 9 17 20 13 30 -4 10 -2
16 6 14 13 -2 12 63 -1 73 -14 9 -13 113 0 122 10 6 9 11 -3 18 -19 11 -20
103 -2 121 15 15 104 15 131 0 13 -7 22 -7 24 -1 2 7 14 7 36 -1 18 -6 41 -9
51 -6 16 4 17 0 8 -42 -11 -56 -12 -57 -32 -41 -13 11 -14 10 -9 -4 3 -9 10
-16 15 -16 4 0 6 -6 3 -14 -10 -25 -34 -6 -35 28 -1 24 -3 26 -6 8 -5 -25 20
-107 50 -164 10 -21 20 -38 21 -38 0 0 1 55 1 122 0 88 3 122 13 126 6 2 12
13 12 24 0 24 50 106 82 134 12 11 18 13 13 5 -5 -9 4 -6 22 7 17 12 42 26 57
32 22 8 26 7 26 -10 0 -21 -25 -50 -45 -50 -14 0 -28 -27 -20 -40 3 -5 -4 -11
-15 -15 -11 -3 -20 -15 -20 -26 0 -19 -10 -66 -35 -166 -8 -30 -9 -53 -4 -53
5 0 9 6 9 14 0 13 34 29 43 20 2 -3 -1 -21 -9 -42 -7 -20 -10 -48 -7 -62 7
-30 72 -92 86 -83 6 4 8 0 4 -10 -3 -9 -3 -16 1 -16 22 4 42 -2 40 -12 -3 -12
70 -38 90 -31 7 2 10 -2 7 -10 -3 -8 2 -14 12 -15 10 -1 48 -3 86 -6 37 -2 67
-3 67 -1 0 2 -11 14 -25 28 -26 26 -19 42 14 31 20 -6 71 13 71 27 0 4 -7 8
-15 8 -8 0 -15 3 -15 8 0 16 32 53 43 49 7 -2 25 9 42 24 24 23 37 28 73 26
29 -2 46 2 49 10 6 16 47 17 73 3 11 -6 31 -8 46 -4 l26 7 -42 38 c-23 22 -47
39 -52 39 -5 0 -24 11 -41 24 -28 21 -85 49 -169 84 -37 15 -35 28 6 36 61 12
220 -59 253 -112 10 -15 26 -38 36 -52 19 -24 19 -24 13 -2 -8 24 3 29 23 10
11 -11 11 -9 2 7 -34 62 -116 117 -228 152 -39 12 -58 24 -64 40 -10 27 -32
38 -56 28 -12 -5 -14 -9 -5 -12 6 -3 10 -9 6 -14 -3 -5 -13 -5 -25 1 -11 6
-25 8 -31 4 -7 -4 -8 -3 -4 5 5 8 -3 16 -23 24 -35 13 -41 27 -11 27 15 0 20
7 20 25 0 14 -5 25 -11 25 -6 0 -8 7 -5 16 5 13 3 14 -7 6 -15 -12 -58 -12
-51 0 3 4 -2 8 -10 8 -9 0 -16 5 -16 10 0 12 2 12 36 0 19 -7 30 -7 40 1 15
12 10 29 -9 29 -8 0 -8 -3 2 -9 8 -5 9 -11 3 -15 -12 -7 -25 10 -29 35 -2 12
4 16 21 15 12 0 23 -5 24 -11 1 -21 12 -58 17 -64 3 -3 10 1 15 9 6 8 10 11
10 5 0 -5 4 -3 9 5 13 20 2 34 -15 19 -12 -10 -13 -8 -8 7 12 33 26 44 48 38
12 -3 33 -1 46 4 33 12 70 12 70 0z m-5443 -30 c-3 -8 -6 -5 -6 6 -1 11 2 17
5 13 3 -3 4 -12 1 -19z m614 9 c-6 -8 -8 -17 -4 -21 4 -4 0 -4 -10 0 -17 6
-17 7 0 20 23 17 28 18 14 1z m-526 -29 c-1 -18 4 -24 15 -21 9 3 8 0 -3 -7
-14 -9 -22 -9 -30 -1 -8 8 -8 11 1 11 9 0 7 8 -5 26 -16 25 -16 26 3 22 13 -2
19 -12 19 -30z m55 3 c0 -4 -8 -7 -18 -8 -10 -1 -19 4 -19 11 0 8 8 11 19 8
10 -2 18 -7 18 -11z m5050 15 c0 -3 -4 -8 -10 -11 -5 -3 -10 -1 -10 4 0 6 5
11 10 11 6 0 10 -2 10 -4z m-3260 -16 c0 -5 -2 -10 -4 -10 -3 0 -8 5 -11 10
-3 6 -1 10 4 10 6 0 11 -4 11 -10z m387 -20 c0 -16 -4 -27 -9 -24 -9 6 -7 54
3 54 3 0 6 -13 6 -30z m-2266 2 c-7 -2 -18 1 -23 6 -8 8 -4 9 13 5 13 -4 18
-8 10 -11z m1672 -2 c-3 -12 -8 -19 -11 -16 -5 6 5 36 12 36 2 0 2 -9 -1 -20z
m237 -22 c0 -13 -28 -9 -32 4 -3 8 -12 1 -22 -15 -10 -15 -24 -27 -31 -27 -7
0 -15 -5 -17 -10 -2 -6 -9 -1 -16 11 -13 20 -12 21 12 17 15 -3 27 0 30 8 6
16 -19 38 -33 29 -6 -3 -18 -2 -27 3 -12 7 -8 9 17 10 18 0 39 -4 46 -10 8 -6
16 -8 20 -4 3 3 1 6 -5 6 -7 0 -12 4 -12 9 0 10 69 -21 70 -31z m384 26 c3 -8
2 -12 -4 -9 -6 3 -10 10 -10 16 0 14 7 11 14 -7z m1912 -83 c39 -80 40 -82 43
-123 4 -63 -14 -43 -32 34 -10 44 -30 92 -52 125 -19 29 -35 56 -35 60 0 19
52 -47 76 -96z m791 84 c0 -17 -13 -20 -21 -6 -4 5 0 12 6 14 7 3 13 6 14 6 0
1 1 -6 1 -14z m67 -9 c-5 -13 -9 -14 -21 -4 -13 10 -13 13 4 19 23 8 25 6 17
-15z m-5094 -6 c0 -5 -5 -10 -11 -10 -5 0 -7 5 -4 10 3 6 8 10 11 10 2 0 4 -4
4 -10z m125 0 c3 -6 -1 -7 -9 -4 -18 7 -21 14 -7 14 6 0 13 -4 16 -10z m-88
-22 c-4 -12 -1 -28 5 -35 16 -20 3 -26 -16 -7 -12 11 -14 20 -7 28 7 9 7 16
-1 24 -9 9 -8 12 6 12 14 0 17 -5 13 -22z m235 8 c15 -11 16 -16 4 -31 -9 -13
-15 -15 -20 -6 -4 6 -12 9 -17 6 -5 -4 -9 -4 -9 0 0 3 10 10 23 15 17 7 18 9
5 9 -10 1 -18 6 -18 11 0 13 11 12 32 -4z m-42 -2 c0 -11 -52 -55 -58 -50 -3
3 6 17 19 30 24 24 39 31 39 20z m-233 -26 c-8 -13 -13 -14 -19 -5 -12 19 -9
26 11 24 15 -1 17 -4 8 -19z m120 6 c5 -15 -29 -28 -37 -14 -4 6 -11 10 -16 9
-18 -3 -25 1 -19 12 9 13 67 8 72 -7z m1539 0 c-4 -9 -1 -22 5 -30 9 -11 2
-40 -16 -62 -6 -7 -55 19 -50 27 3 5 -4 13 -16 16 -16 5 -18 10 -9 18 10 9 14
9 17 0 3 -7 9 -13 15 -13 6 0 8 6 5 14 -7 18 11 36 29 29 8 -3 14 0 14 6 0 6
3 11 6 11 3 0 3 -7 0 -16z m254 -22 c0 -11 -8 -18 -20 -18 -23 0 -24 1 -8 25
14 22 28 18 28 -7z m380 19 c0 -6 -4 -13 -10 -16 -5 -3 -10 1 -10 9 0 9 5 16
10 16 6 0 10 -4 10 -9z m-1939 -28 c-8 -15 -10 -15 -11 -2 0 17 10 32 18 25 2
-3 -1 -13 -7 -23z m1909 17 c0 -5 -4 -10 -10 -10 -5 0 -10 5 -10 10 0 6 5 10
10 10 6 0 10 -4 10 -10z m-1609 -23 c-10 -9 -11 -8 -5 6 3 10 9 15 12 12 3 -3
0 -11 -7 -18z m769 -23 c-10 -21 -19 -35 -20 -31 0 13 32 78 36 74 2 -2 -5
-21 -16 -43z m118 26 c-14 -22 -24 -19 -15 5 4 8 11 15 17 15 6 0 6 -7 -2 -20z
m-1449 -17 c-10 -11 -14 -11 -20 -1 -14 21 -10 26 11 21 16 -4 18 -8 9 -20z
m62 10 c13 -16 12 -17 -3 -4 -17 13 -22 21 -14 21 2 0 10 -8 17 -17z m83 -13
c-6 -6 -10 -3 -10 10 0 13 4 16 10 10 7 -7 7 -13 0 -20z m346 16 c0 -2 -7 -6
-15 -10 -8 -3 -15 -1 -15 4 0 6 7 10 15 10 8 0 15 -2 15 -4z m445 -14 c-3 -3
-11 0 -18 7 -9 10 -8 11 6 5 10 -3 15 -9 12 -12z m478 -9 c-3 -7 -9 -10 -14
-7 -11 6 -11 1 -3 -20 3 -9 10 -16 15 -16 4 0 6 6 3 14 -3 8 -1 17 5 21 6 3
11 1 11 -4 0 -6 5 -11 11 -11 5 0 7 5 3 12 -5 8 -2 9 9 5 10 -4 17 -1 18 6 0
7 5 2 11 -10 6 -12 16 -24 22 -26 6 -2 3 -3 -6 -2 -25 4 -53 -19 -43 -35 6
-10 4 -12 -8 -7 -10 4 -17 2 -17 -5 0 -7 -5 -6 -15 2 -8 7 -12 17 -8 23 3 6 1
7 -6 3 -6 -4 -9 -11 -6 -16 3 -5 -11 -2 -31 6 -19 8 -33 11 -30 5 4 -5 2 -12
-4 -16 -14 -9 -12 18 3 39 12 17 15 17 29 3 9 -9 18 -13 21 -10 3 3 0 12 -8
20 -23 23 -18 38 14 38 19 0 27 -4 24 -12z m1627 -3 c0 -5 -5 -10 -11 -10 -5
0 -7 5 -4 10 3 6 8 10 11 10 2 0 4 -4 4 -10z m-2980 -10 c-20 -13 -33 -13 -25
0 3 6 14 10 23 10 15 0 15 -2 2 -10z m2877 -11 c-4 -14 1 -23 16 -29 21 -8 21
-9 -5 -9 -27 -1 -46 27 -33 49 11 18 27 10 22 -11z m-2942 1 c3 -5 1 -10 -4
-10 -6 0 -11 5 -11 10 0 6 2 10 4 10 3 0 8 -4 11 -10z m-231 -9 c3 -5 -5 -8
-19 -8 -14 0 -22 3 -19 8 3 5 11 9 19 9 8 0 16 -4 19 -9z m1809 -16 c-3 -9 -8
-14 -10 -11 -3 3 -2 9 2 15 9 16 15 13 8 -4z m-1813 -19 c-7 -7 -13 -7 -20 0
-6 6 -3 10 10 10 13 0 16 -4 10 -10z m1764 6 c3 -5 -1 -9 -9 -9 -8 0 -12 4 -9
9 3 4 7 8 9 8 2 0 6 -4 9 -8z m1506 -2 c0 -5 -5 -10 -11 -10 -5 0 -7 5 -4 10
3 6 8 10 11 10 2 0 4 -4 4 -10z m3 -112 c6 -99 30 -173 87 -274 33 -60 25 -72
-14 -21 -37 48 -73 133 -89 208 -14 64 -12 179 3 179 4 0 10 -42 13 -92z
m-3278 23 c-6 -5 -25 10 -25 20 0 5 6 4 14 -3 8 -7 12 -15 11 -17z m-27 -17
c-4 -3 -12 5 -18 18 -12 22 -12 22 6 6 10 -10 15 -20 12 -24z m4042 4 c0 -5
-4 -8 -10 -8 -5 0 -10 10 -10 23 0 18 2 19 10 7 5 -8 10 -18 10 -22z m-4074
-26 c8 -5 7 -11 -4 -22 -14 -13 -15 -12 -9 2 3 9 1 19 -6 22 -7 2 -7 5 -2 5 6
0 15 -3 21 -7z m54 -10 c0 -5 -7 -9 -15 -9 -8 0 -12 4 -9 9 3 4 9 8 15 8 5 0
9 -4 9 -8z m5516 -11 c-8 -12 15 -20 45 -14 27 5 83 -32 73 -48 -6 -11 -33
-22 -77 -33 l-28 -7 17 26 c20 30 19 32 -25 38 -18 3 -38 10 -43 15 -14 14 -1
32 23 32 11 0 18 -4 15 -9z m-5469 -23 c2 -17 0 -19 -7 -8 -5 8 -6 18 -4 22 8
12 10 10 11 -14z m-47 -22 c0 -3 -4 -8 -10 -11 -5 -3 -10 -1 -10 4 0 6 5 11
10 11 6 0 10 -2 10 -4z m-45 -26 c3 -6 -1 -7 -9 -4 -18 7 -21 14 -7 14 6 0 13
-4 16 -10z m68 -11 c3 -13 1 -19 -6 -16 -15 5 -22 37 -9 37 5 0 12 -9 15 -21z
m6803 -28 c45 -27 74 -94 84 -197 12 -117 -3 -200 -85 -449 -107 -327 -160
-437 -275 -567 -29 -32 -48 -43 -108 -59 -41 -11 -79 -21 -85 -22 -8 -1 -12
24 -12 83 0 50 -5 94 -13 107 -7 12 -8 24 -3 27 5 4 12 25 16 49 9 62 25 99
39 88 17 -13 41 1 41 26 0 30 -8 35 -40 23 l-28 -11 8 53 c4 29 8 69 9 88 2
19 8 64 15 100 7 36 15 76 18 89 4 22 5 22 22 6 11 -9 22 -33 26 -53 7 -41 32
-85 43 -78 4 2 8 -3 9 -12 1 -9 3 -39 6 -67 2 -27 0 -56 -6 -63 -7 -9 -5 -18
8 -32 14 -16 21 -17 39 -8 40 20 57 48 59 91 1 23 6 45 11 49 6 4 4 18 -4 35
-8 15 -14 33 -15 38 0 6 -12 21 -28 34 -17 15 -25 31 -22 41 6 19 -102 127
-124 122 -10 -3 -12 2 -6 15 7 18 33 172 42 251 3 23 9 42 14 42 5 0 9 -5 9
-11 0 -5 5 -7 11 -4 6 4 8 13 5 21 -3 8 1 17 9 20 8 4 12 10 9 16 -10 15 27
48 54 48 14 0 23 3 19 6 -9 10 47 53 90 69 54 19 103 18 139 -4z m-1301 -11
c3 -5 1 -10 -4 -10 -6 0 -11 5 -11 10 0 6 2 10 4 10 3 0 8 -4 11 -10z m1025 1
c0 -6 -4 -13 -10 -16 -5 -3 -10 1 -10 9 0 9 5 16 10 16 6 0 10 -4 10 -9z
m-6603 -23 c-3 -8 -6 -5 -6 6 -1 11 2 17 5 13 3 -3 4 -12 1 -19z m5513 12 c0
-5 -4 -10 -10 -10 -5 0 -10 5 -10 10 0 6 5 10 10 10 6 0 10 -4 10 -10z m30 0
c0 -5 -2 -10 -4 -10 -3 0 -8 5 -11 10 -3 6 -1 10 4 10 6 0 11 -4 11 -10z
m-5492 -25 c-1 -13 -6 -21 -10 -17 -5 5 -6 16 -2 25 9 24 14 21 12 -8z m32 -5
c0 -5 -2 -10 -4 -10 -3 0 -8 5 -11 10 -3 6 -1 10 4 10 6 0 11 -4 11 -10z m-96
-25 c-8 -21 13 -19 25 3 6 9 11 15 11 12 7 -32 7 -39 -2 -34 -5 3 -20 -4 -32
-15 -21 -20 -24 -20 -30 -5 -4 12 -2 15 9 10 18 -7 21 10 3 17 -10 4 -9 8 2
16 20 14 20 14 14 -4z m87 -24 c7 11 9 11 9 -2 0 -11 -8 -16 -24 -16 -19 0
-22 2 -13 12 7 8 13 9 16 3 2 -6 7 -4 12 3z m-51 -51 c0 -5 -2 -10 -4 -10 -3
0 -8 5 -11 10 -3 6 -1 10 4 10 6 0 11 -4 11 -10z m-90 -10 c0 -5 -2 -10 -4
-10 -3 0 -8 5 -11 10 -3 6 -1 10 4 10 6 0 11 -4 11 -10z m158 -15 c-3 -3 -9 2
-12 12 -6 14 -5 15 5 6 7 -7 10 -15 7 -18z m-108 0 c0 -8 -4 -15 -10 -15 -5 0
-7 7 -4 15 4 8 8 15 10 15 2 0 4 -7 4 -15z m70 -15 c0 -5 -5 -10 -11 -10 -5 0
-7 5 -4 10 3 6 8 10 11 10 2 0 4 -4 4 -10z m22 -42 c-8 -8 -9 -4 -5 13 4 13 8
18 11 10 2 -7 -1 -18 -6 -23z m-72 2 c0 -5 -4 -10 -10 -10 -5 0 -10 5 -10 10
0 6 5 10 10 10 6 0 10 -4 10 -10z m50 6 c0 -2 -7 -7 -16 -10 -8 -3 -12 -2 -9
4 6 10 25 14 25 6z m45 -26 c3 -5 1 -10 -4 -10 -6 0 -11 5 -11 10 0 6 2 10 4
10 3 0 8 -4 11 -10z m-64 -23 c-10 -9 -11 -8 -5 6 3 10 9 15 12 12 3 -3 0 -11
-7 -18z m-78 1 c-2 -5 1 -8 8 -8 7 0 10 -3 7 -6 -4 -3 -19 1 -35 9 l-28 15 27
-1 c14 -1 24 -5 21 -9z m42 2 c3 -5 1 -10 -4 -10 -6 0 -11 5 -11 10 0 6 2 10
4 10 3 0 8 -4 11 -10z m95 -14 c0 -2 -7 -7 -16 -10 -8 -3 -12 -2 -9 4 6 10 25
14 25 6z m-170 -31 c0 -8 5 -15 11 -15 8 0 7 -6 -2 -17 -13 -15 -12 -16 9 -11
12 4 22 3 22 0 0 -4 14 -13 30 -20 30 -14 32 -32 4 -32 -8 0 -12 5 -9 10 3 6
2 10 -2 10 -12 0 -42 -37 -36 -44 4 -3 1 -6 -5 -6 -7 0 -12 5 -12 10 0 6 -5
10 -11 10 -5 0 -7 -6 -3 -12 5 -9 2 -9 -9 1 -22 18 -22 20 8 17 30 -4 48 14
35 34 -8 12 -10 12 -10 -3 0 -11 -6 -17 -12 -14 -7 2 -13 18 -13 36 1 20 -3
30 -11 27 -7 -3 -10 3 -7 15 6 22 23 26 23 4z m57 2 c-3 -8 -1 -20 4 -28 7
-11 9 -10 9 6 0 16 2 17 10 5 8 -13 11 -12 25 5 14 17 16 17 11 2 -3 -10 0
-20 9 -23 7 -3 11 -12 8 -20 -3 -8 1 -14 8 -14 8 0 15 11 15 25 1 13 -3 23 -8
22 -6 -1 -13 5 -15 13 -4 13 -3 13 6 0 8 -11 11 -11 11 -2 0 10 3 10 14 0 10
-9 11 -17 3 -26 -7 -9 -7 -16 1 -24 14 -14 16 -32 3 -23 -5 3 -17 -3 -27 -12
-17 -17 -17 -17 -11 -1 3 10 2 20 -2 23 -18 10 -20 -38 -3 -52 15 -12 15 -12
1 -7 -10 3 -20 1 -24 -5 -3 -6 -11 -11 -17 -11 -6 0 -8 3 -5 7 4 3 1 13 -6 21
-10 13 -9 14 2 8 13 -9 31 8 31 30 0 6 -18 20 -40 33 -22 12 -40 24 -40 26 0
13 14 35 22 35 6 0 8 -6 5 -13z m3 -123 c0 -8 -5 -12 -10 -9 -6 4 -8 11 -5 16
9 14 15 11 15 -7z m56 -49 c-4 -14 -11 -25 -17 -25 -8 0 -8 4 0 14 6 8 11 18
10 22 -3 16 1 27 7 21 4 -3 4 -18 0 -32z m48 20 c-4 -8 -8 -15 -10 -15 -2 0
-4 7 -4 15 0 8 4 15 10 15 5 0 7 -7 4 -15z m-164 -35 c0 -5 -4 -10 -10 -10 -5
0 -10 5 -10 10 0 6 5 10 10 10 6 0 10 -4 10 -10z m40 6 c0 -2 -8 -10 -17 -17
-16 -13 -17 -12 -4 4 13 16 21 21 21 13z m137 -11 c0 -8 -4 -12 -9 -9 -4 3 -8
9 -8 15 0 5 4 9 8 9 5 0 9 -7 9 -15z m-77 -29 c0 -2 -7 -9 -15 -16 -13 -11
-14 -10 -9 4 5 14 24 23 24 12z m75 -6 c3 -5 0 -20 -7 -32 -7 -13 -13 -29 -13
-37 0 -8 -6 -16 -13 -17 -7 -1 -9 0 -4 2 5 3 8 25 6 49 -3 34 -1 45 10 45 8 0
18 -4 21 -10z m-49 -56 c-3 -8 -11 -14 -17 -14 -8 0 -9 4 0 13 14 18 2 30 -16
16 -19 -16 -16 -4 4 16 15 16 17 16 25 0 6 -9 7 -23 4 -31z m83 -38 c9 3 7 -2
-6 -12 -26 -19 -30 -44 -8 -44 8 0 15 -4 15 -10 0 -5 -11 -10 -25 -10 -18 0
-25 5 -25 20 0 11 -3 19 -7 19 -21 -3 -20 3 0 24 12 13 26 20 31 16 5 -4 16
-5 25 -3z m16 -36 c3 -5 2 -10 -4 -10 -5 0 -13 5 -16 10 -3 6 -2 10 4 10 5 0
13 -4 16 -10z m-84 -43 c-10 -9 -11 -8 -5 6 3 10 9 15 12 12 3 -3 0 -11 -7
-18z m100 -10 c-8 -8 -11 -7 -11 4 0 20 13 34 18 19 3 -7 -1 -17 -7 -23z m-29
-38 c7 0 4 -4 -7 -9 -31 -13 -32 -12 -27 22 5 30 6 31 13 10 5 -12 14 -22 21
-23z m45 -1 c-3 -8 -6 -5 -6 6 -1 11 2 17 5 13 3 -3 4 -12 1 -19z m-102 -8
c-10 -11 -21 -18 -23 -15 -3 3 3 12 14 20 27 20 30 18 9 -5z m54 -77 c2 -1 -6
-1 -18 0 -11 1 -21 8 -21 15 0 12 3 12 18 1 9 -7 19 -14 21 -16z m91 17 c8 -5
11 -10 5 -10 -5 0 -17 5 -25 10 -8 5 -10 10 -5 10 6 0 17 -5 25 -10z m54 -9
c15 -17 15 -19 1 -25 -9 -3 -13 -2 -10 3 3 5 1 12 -5 16 -9 6 -14 25 -7 25 2
0 12 -8 21 -19z m-196 -26 c-3 -3 -9 2 -12 12 -6 14 -5 15 5 6 7 -7 10 -15 7
-18z m114 -21 c-4 -30 -6 -34 -14 -20 -5 10 -6 25 -2 34 4 9 6 21 5 25 -1 5 2
6 7 3 4 -2 6 -21 4 -42z m-50 4 c-5 -5 -18 -8 -28 -5 -15 4 -14 5 4 6 15 1 21
5 16 13 -5 7 -3 8 5 3 8 -5 9 -11 3 -17z m108 11 c0 -5 -3 -8 -7 -6 -5 3 -14
-1 -21 -9 -8 -9 -9 -14 -2 -14 6 0 9 -4 6 -9 -4 -5 3 -7 14 -4 11 3 20 9 20
13 0 19 26 16 28 -3 1 -17 -1 -19 -8 -7 -8 12 -10 9 -10 -11 0 -18 -6 -28 -20
-32 -22 -6 -28 8 -7 17 6 3 2 3 -10 0 -13 -3 -23 -1 -23 5 0 5 -3 16 -6 24 -3
8 2 22 11 31 19 18 35 21 35 5z m86 -16 c-6 -6 -36 9 -36 18 0 5 9 4 20 -3 10
-7 18 -14 16 -15z m2530 -30 c-11 -11 -17 4 -9 23 7 18 8 18 11 1 2 -10 1 -21
-2 -24z m-2766 7 c0 -5 -4 -10 -10 -10 -5 0 -10 5 -10 10 0 6 5 10 10 10 6 0
10 -4 10 -10z m64 -15 c24 -18 14 -20 -14 -3 -15 10 -23 9 -39 -6 -27 -25 -27
-39 0 -31 15 5 19 4 15 -4 -4 -6 -1 -11 7 -11 8 0 18 8 22 18 6 16 7 16 16 0
6 -10 19 -18 30 -18 11 0 18 4 15 8 -3 5 8 9 24 10 16 0 31 -6 34 -14 3 -8 -1
-14 -10 -14 -9 0 -12 5 -8 12 4 7 3 8 -5 4 -6 -4 -9 -12 -6 -17 4 -5 1 -9 -4
-9 -6 0 -11 -5 -11 -11 0 -7 9 -9 21 -6 17 4 19 3 10 -6 -16 -16 -14 -30 4
-24 11 5 12 1 5 -19 -13 -33 -13 -54 0 -34 8 11 9 9 8 -12 -2 -17 -6 -24 -11
-19 -5 5 -15 7 -22 5 -6 -3 -18 3 -26 12 -12 15 -12 18 0 22 10 3 7 9 -10 18
-13 7 -18 13 -10 14 7 0 11 6 8 14 -3 8 -1 16 4 18 13 4 1 38 -13 38 -6 0 -4
-8 3 -17 12 -15 12 -16 -4 -10 -15 5 -18 2 -15 -15 2 -12 -3 -23 -11 -26 -10
-3 -12 0 -8 12 6 14 3 16 -13 11 -11 -4 -20 -2 -20 4 0 6 9 11 20 11 11 0 23
7 27 15 7 21 -6 33 -16 16 -5 -7 -14 -11 -19 -7 -6 4 -20 1 -31 -6 -16 -10
-18 -15 -8 -27 10 -11 9 -13 -3 -9 -7 2 -22 19 -32 37 -10 18 -14 30 -9 27 5
-3 11 5 15 17 5 22 36 45 61 46 6 0 19 -6 29 -14z m216 -20 c4 3 7 -3 6 -12 0
-9 5 -17 12 -19 7 -1 8 0 3 2 -6 3 -7 12 -4 20 4 10 11 4 24 -20 20 -37 16
-66 -7 -66 -8 0 -17 -7 -20 -15 -9 -23 -19 -18 -21 12 -1 18 2 22 8 12 6 -11
11 -11 20 -2 15 15 21 43 9 43 -14 0 -21 -18 -10 -23 6 -3 5 -4 -2 -3 -7 2
-11 12 -10 22 3 15 1 17 -9 7 -7 -7 -21 -13 -30 -13 -10 0 -19 -6 -22 -12 -3
-7 -5 -4 -4 7 1 15 8 20 26 20 18 0 25 5 22 15 -6 24 -8 46 -4 32 3 -7 8 -10
13 -7z m-185 -15 c3 -5 1 -10 -4 -10 -6 0 -11 5 -11 10 0 6 2 10 4 10 3 0 8
-4 11 -10z m6164 -58 c1 -7 -3 -10 -9 -7 -5 3 -10 18 -9 33 0 24 1 25 9 7 5
-11 9 -26 9 -33z m-5895 22 c9 -24 7 -27 -9 -10 -17 17 -19 26 -6 26 5 0 12
-7 15 -16z m-324 -8 c0 -2 -7 -7 -16 -10 -8 -3 -12 -2 -9 4 6 10 25 14 25 6z
m170 -31 c0 -5 -5 -3 -10 5 -5 8 -10 20 -10 25 0 6 5 3 10 -5 5 -8 10 -19 10
-25z m2423 5 c3 -13 1 -18 -6 -13 -6 4 -8 0 -4 -9 4 -12 1 -14 -13 -11 -10 3
-21 11 -24 18 -3 9 2 11 16 7 17 -4 20 -2 15 11 -4 10 -3 17 2 17 5 0 11 -9
14 -20z m-2278 0 c3 -5 1 -10 -4 -10 -6 0 -11 5 -11 10 0 6 2 10 4 10 3 0 8
-4 11 -10z m4119 -25 c-21 -19 -40 -35 -43 -35 -3 0 10 16 29 35 19 19 38 35
43 35 5 0 -8 -16 -29 -35z m66 15 c-11 -7 -12 -12 -3 -18 8 -5 5 -14 -9 -32
l-21 -25 8 23 c6 22 5 23 -17 17 l-23 -7 24 26 c14 14 32 26 40 26 14 0 14 -2
1 -10z m-4490 -16 c0 -2 -9 -4 -21 -4 -11 0 -18 4 -14 10 5 8 35 3 35 -6z
m283 -9 c-3 -9 -8 -14 -10 -11 -3 3 -2 9 2 15 9 16 15 13 8 -4z m2256 2 c8
-11 6 -18 -11 -33 -20 -18 -21 -18 -15 -1 4 11 3 16 -4 12 -5 -4 -7 -15 -4
-26 5 -14 2 -17 -9 -13 -11 4 -19 -2 -26 -20 -5 -14 -15 -26 -21 -26 -6 0 -9
-9 -6 -19 3 -11 -1 -22 -8 -25 -10 -4 -13 5 -10 35 3 28 1 38 -7 33 -7 -4 -8
-3 -4 4 4 7 14 12 22 12 8 0 13 3 11 8 -3 4 4 16 15 27 19 20 19 20 12 0 -7
-18 -6 -18 9 -7 9 8 19 22 22 33 7 22 18 24 34 6z m-2490 -31 c-8 -8 -13 -8
-16 1 -2 7 -12 9 -21 6 -13 -4 -14 -3 -3 5 19 14 56 3 40 -12z m2536 4 c3 -5
1 -10 -4 -10 -6 0 -11 5 -11 10 0 6 2 10 4 10 3 0 8 -4 11 -10z m-25 -14 c0
-3 -4 -8 -10 -11 -5 -3 -10 -1 -10 4 0 6 5 11 10 11 6 0 10 -2 10 -4z m-2457
-51 c19 5 20 4 5 -5 -21 -13 -58 6 -58 30 0 9 5 7 16 -8 11 -16 22 -21 37 -17z
m2427 20 c0 -8 -5 -15 -11 -15 -6 0 -17 -7 -26 -15 -8 -9 -18 -14 -21 -11 -4
5 47 56 56 56 1 0 2 -7 2 -15z m1930 11 c0 -3 -4 -8 -10 -11 -5 -3 -10 -1 -10
4 0 6 5 11 10 11 6 0 10 -2 10 -4z m240 -30 c0 -2 -8 -10 -17 -17 -16 -13 -17
-12 -4 4 13 16 21 21 21 13z m-2280 -10 c0 -3 -4 -8 -10 -11 -5 -3 -10 -1 -10
4 0 6 5 11 10 11 6 0 10 -2 10 -4z m-17 -78 l-10 -22 -5 22 c-4 12 -2 22 4 22
5 0 6 6 2 13 -5 9 -4 9 6 0 10 -9 11 -18 3 -35z m2247 18 c0 -2 -7 -7 -16 -10
-8 -3 -12 -2 -9 4 6 10 25 14 25 6z m-220 -36 c-8 -5 -17 -7 -19 -4 -3 3 1 9
9 14 8 5 17 7 19 4 3 -3 -1 -9 -9 -14z m-1908 -12 c-7 -7 -12 -8 -12 -2 0 6 3
14 7 17 3 4 9 5 12 2 2 -3 -1 -11 -7 -17z m3621 -21 c5 -32 4 -35 -9 -23 -15
15 -19 48 -7 59 9 9 9 8 16 -36z m-3807 18 c-6 -17 5 -20 20 -5 7 7 11 6 11
-5 0 -8 -6 -15 -13 -15 -7 0 -15 -4 -19 -9 -3 -6 6 -6 24 -1 30 8 41 5 41 -13
0 -5 -7 -6 -16 -3 -27 10 -37 -5 -17 -26 18 -21 18 -21 -9 -16 -31 6 -36 -5
-14 -28 15 -15 10 -58 -6 -48 -5 4 -8 -3 -6 -14 2 -12 -5 -28 -17 -36 -16 -12
-17 -18 -7 -24 10 -7 9 -12 -4 -23 -16 -12 -17 -12 -11 4 3 9 4 17 2 17 -7 0
-45 -39 -45 -45 0 -28 -1 -29 -8 -19 -13 20 -56 38 -60 25 -2 -6 -8 -11 -14
-11 -6 0 -6 6 2 15 7 8 10 22 6 30 -3 9 -2 13 4 10 6 -3 10 -1 10 4 0 6 -5 11
-11 11 -5 0 -7 5 -4 10 4 6 11 7 17 4 7 -5 8 -2 3 6 -6 10 -12 8 -26 -8 -9
-12 -19 -22 -21 -22 -1 0 -3 23 -3 50 0 36 4 49 12 45 7 -2 12 -1 12 3 -1 4
-1 14 1 22 1 11 4 9 10 -5 7 -17 9 -15 9 13 1 17 4 31 9 31 20 -3 32 2 32 16
0 14 12 19 33 16 4 0 6 2 6 7 -4 22 3 31 18 25 10 -4 14 -2 10 4 -7 11 7 21
32 22 8 1 11 -5 7 -14z m218 -28 c-8 -5 -20 -6 -27 -3 -7 2 -4 5 6 5 9 1 17 9
17 19 0 14 2 15 10 2 6 -10 5 -17 -6 -23z m50 7 c3 -8 2 -12 -4 -9 -6 3 -10
10 -10 16 0 14 7 11 14 -7z m1768 -6 c-7 -7 -12 -8 -12 -2 0 14 12 26 19 19 2
-3 -1 -11 -7 -17z m210 -40 c-3 -13 -8 -15 -22 -8 -9 5 -19 7 -22 5 -3 -3 -5
1 -5 8 0 9 11 14 27 13 20 -1 26 -5 22 -18z m1553 -14 c9 -14 14 -28 11 -31
-7 -7 -34 15 -47 39 -16 29 16 23 36 -8z m-1493 -68 c-3 -11 -7 -15 -10 -8 -2
7 -8 10 -13 6 -5 -3 -9 2 -9 10 0 9 5 16 11 16 6 0 8 9 4 23 -6 21 -5 21 8 -2
8 -13 12 -33 9 -45z m-4272 44 c0 -5 -2 -10 -4 -10 -3 0 -8 5 -11 10 -3 6 -1
10 4 10 6 0 11 -4 11 -10z m5735 -30 c-3 -5 -11 -10 -16 -10 -6 0 -7 5 -4 10
3 6 11 10 16 10 6 0 7 -4 4 -10z m-1515 -25 c0 -7 5 -15 11 -17 12 -4 1 -38
-12 -38 -14 0 -32 47 -25 65 7 18 26 11 26 -10z m-4906 -20 c12 -18 13 -24 4
-23 -16 4 -28 19 -28 36 0 18 6 15 24 -13z m216 10 c-7 -9 -15 -13 -19 -10 -3
3 1 10 9 15 21 14 24 12 10 -5z m510 3 c0 -5 -6 -16 -14 -23 -12 -12 -14 -11
-12 9 1 21 26 34 26 14z m32 -10 c-7 -7 -12 -8 -12 -2 0 14 12 26 19 19 2 -3
-1 -11 -7 -17z m-795 -20 l2 -21 -20 21 c-24 26 -24 31 -1 25 10 -2 19 -14 19
-25z m287 -4 c4 -10 -3 -24 -16 -36 -13 -11 -18 -17 -11 -14 6 4 15 1 18 -5 4
-5 13 -8 20 -5 9 3 11 -2 8 -15 -3 -10 0 -26 7 -34 8 -9 8 -15 2 -15 -17 0 -7
-49 16 -75 24 -28 29 -61 10 -68 -9 -4 -8 -6 3 -6 8 -1 20 4 25 9 7 7 10 1 10
-17 0 -16 -4 -31 -10 -35 -7 -6 -6 -11 4 -18 8 -5 11 -10 6 -10 -5 0 -3 -7 4
-15 11 -13 9 -19 -10 -37 -14 -14 -19 -23 -12 -26 7 -2 12 -13 13 -25 0 -21 1
-21 9 -2 6 14 9 15 9 5 1 -9 -6 -25 -14 -36 -8 -12 -12 -24 -8 -27 3 -4 0 -13
-6 -21 -8 -10 -9 -16 -1 -21 5 -3 13 1 16 9 5 13 8 13 20 1 20 -19 17 -30 -3
-14 -15 12 -16 12 -10 -3 3 -10 2 -18 -2 -18 -5 0 -8 -8 -7 -17 2 -10 -2 -22
-8 -26 -7 -5 -3 -6 8 -3 15 5 17 4 8 -7 -7 -8 -9 -17 -5 -20 3 -4 1 -7 -5 -7
-7 0 -12 -5 -12 -11 0 -6 7 -9 15 -5 27 10 16 -8 -15 -26 -17 -9 -30 -23 -30
-30 0 -9 3 -9 8 -2 4 6 15 13 25 17 14 5 18 3 15 -10 -2 -9 -14 -20 -28 -24
-19 -5 -21 -7 -5 -8 14 -1 16 -4 8 -12 -9 -9 -7 -16 6 -28 9 -9 12 -13 6 -9
-6 4 -17 2 -25 -3 -12 -8 -12 -12 -2 -16 17 -7 -14 -43 -37 -43 -11 0 -12 -3
-3 -12 9 -9 16 -6 30 10 21 24 42 31 23 8 -16 -19 -4 -46 17 -39 9 3 5 -4 -10
-16 -32 -25 -38 -54 -10 -44 12 4 10 0 -7 -15 -14 -13 -21 -28 -17 -37 8 -21
-11 -19 -23 3 -9 14 -10 14 -11 2 0 -9 5 -21 12 -28 9 -9 9 -12 0 -12 -7 0
-10 -12 -8 -30 2 -16 -1 -30 -6 -30 -5 0 -6 -4 -3 -10 3 -6 -1 -7 -9 -4 -20 8
-20 18 -1 38 8 8 11 17 7 20 -5 3 -14 -6 -20 -19 -14 -29 1 -71 27 -79 9 -2
-1 -3 -22 -1 -34 2 -37 0 -32 -19 5 -18 5 -19 -5 -4 -7 12 -8 24 -1 36 21 39
21 129 1 117 -5 -3 -11 -1 -15 5 -4 6 -11 8 -16 5 -5 -4 -9 -2 -9 4 0 5 10 11
22 13 25 3 36 25 13 25 -8 0 -15 -4 -15 -9 0 -4 -5 -8 -10 -8 -6 0 -3 11 6 25
15 23 15 25 -2 25 -9 0 -14 3 -11 7 4 3 2 12 -4 20 -6 7 -8 13 -3 13 5 0 2 5
-6 10 -9 6 -11 10 -3 10 7 0 19 -12 27 -27 8 -16 15 -23 15 -18 0 6 -6 21 -14
35 -19 33 -20 67 -2 51 10 -8 19 -7 33 5 18 14 18 15 -3 4 -19 -9 -23 -8 -23
6 0 10 -5 14 -14 11 -11 -4 -14 1 -11 21 6 49 10 57 30 69 20 12 20 12 -1 13
-25 0 -37 23 -21 39 8 8 7 11 -6 11 -9 0 -17 5 -17 10 0 6 6 10 13 10 8 0 7 3
-3 10 -12 7 -12 12 -3 21 9 9 8 18 -7 40 -11 15 -17 34 -14 43 3 9 1 16 -5 16
-6 0 -8 6 -5 14 3 8 0 17 -5 21 -6 3 -8 11 -5 17 4 7 2 8 -4 4 -11 -7 -17 13
-13 38 1 5 -5 6 -14 2 -9 -3 -13 -2 -10 4 3 6 14 10 23 10 12 1 10 5 -8 15
-23 13 -23 14 -5 15 11 1 15 4 8 6 -7 3 -9 12 -6 20 7 20 -14 18 -27 -3 -9
-15 -11 -15 -7 -2 3 9 1 21 -3 25 -5 5 -5 15 0 24 8 12 10 11 10 -5 0 -16 2
-17 9 -5 7 10 4 18 -9 27 -12 8 -17 20 -13 30 5 12 3 14 -8 9 -8 -4 -5 0 5 8
11 9 15 16 9 16 -6 0 -13 7 -17 15 -4 10 1 14 16 12 11 -1 23 5 25 13 3 10 2
11 -4 4 -4 -6 -16 -9 -25 -5 -15 5 -15 9 -2 31 l15 25 -7 -25 -7 -25 22 20
c18 15 24 17 31 6 6 -10 12 -7 24 15 8 16 15 25 16 20 0 -5 7 -3 15 4 10 8 12
17 6 24 -11 13 -3 30 19 39 12 4 11 6 -2 6 -10 1 -18 5 -18 11 0 13 32 28 47
23 7 -3 16 2 19 11 8 21 30 21 38 0z m551 -4 c3 -6 -1 -7 -9 -4 -18 7 -21 14
-7 14 6 0 13 -4 16 -10z m4145 0 c0 -5 -4 -10 -10 -10 -5 0 -10 5 -10 10 0 6
5 10 10 10 6 0 10 -4 10 -10z m-4940 -31 c0 -5 0 -12 0 -16 1 -19 -26 -7 -28
13 -1 17 2 22 13 18 8 -4 15 -10 15 -15z m6376 -36 c-11 -11 -19 6 -11 24 8
17 8 17 12 0 3 -10 2 -21 -1 -24z m-1194 8 c4 -1 4 -9 1 -18 -5 -15 -4 -16 8
-7 19 15 86 27 93 16 4 -7 61 -7 180 1 35 2 41 -2 57 -30 14 -25 15 -31 4 -26
-9 3 -15 -1 -15 -11 0 -10 5 -13 17 -9 13 5 15 2 11 -15 -4 -14 2 -28 18 -43
30 -28 31 -43 2 -36 -22 6 -22 6 -4 -8 11 -8 16 -15 12 -15 -5 0 -2 -7 5 -16
12 -15 11 -16 -9 -10 -24 8 -29 -3 -9 -23 10 -11 7 -12 -15 -7 -27 6 -39 -6
-18 -19 7 -4 7 -13 0 -26 -6 -10 -7 -19 -2 -19 10 0 8 -56 -3 -82 -9 -22 -23
-23 -44 -4 -10 9 -22 12 -30 7 -11 -7 -9 -11 8 -20 31 -17 26 -31 -10 -26
l-30 4 26 -35 c14 -19 21 -34 16 -34 -6 0 -11 5 -11 10 0 17 -18 11 -22 -7 -3
-15 -5 -14 -10 5 -4 15 -3 20 5 15 7 -3 9 -2 4 2 -9 11 -87 13 -87 3 0 -5 7
-8 16 -8 8 0 12 -4 9 -10 -3 -5 3 -15 15 -22 11 -7 20 -18 20 -25 0 -14 -49
-2 -82 21 -31 22 -45 20 -23 -4 10 -11 21 -17 25 -15 4 3 13 -2 20 -10 6 -7
18 -11 26 -8 9 3 14 -2 14 -16 0 -12 -6 -21 -14 -21 -23 0 -28 -31 -9 -53 18
-19 17 -20 -4 -8 -28 14 -33 22 -35 58 -2 29 -18 48 -28 33 -3 -5 -17 9 -30
30 -14 22 -28 40 -33 40 -4 0 0 -11 9 -25 9 -14 13 -25 8 -25 -4 0 3 -12 17
-27 l24 -26 -33 19 c-19 10 -38 27 -43 37 -12 22 -54 24 -45 2 4 -10 -1 -15
-15 -15 -11 0 -18 -4 -15 -8 3 -5 -8 -8 -24 -7 -17 1 -30 -2 -30 -7 0 -5 -5
-6 -11 -2 -8 4 -9 0 -4 -15 5 -16 3 -20 -9 -15 -8 3 -17 13 -19 22 -3 10 -5 5
-6 -10 0 -16 -6 -28 -12 -28 -5 0 -7 -4 -4 -10 3 -5 -1 -10 -9 -10 -9 0 -16 5
-16 10 0 6 -9 10 -21 10 -15 0 -19 5 -15 15 4 13 2 14 -14 5 -16 -9 -20 -8
-20 6 0 10 -3 14 -7 11 -7 -8 -33 11 -33 25 0 5 5 6 10 3 6 -3 10 -1 10 4 0
14 -13 14 -27 0 -7 -7 -12 -6 -16 5 -3 8 -1 21 6 28 10 10 9 16 -4 30 -10 9
-19 14 -22 12 -2 -2 -11 4 -19 13 -14 17 -13 21 14 48 17 17 27 24 24 18 -5
-9 1 -13 19 -13 15 0 24 4 20 10 -4 6 13 10 42 11 67 0 131 13 116 22 -7 4 -9
15 -6 25 6 15 5 16 -12 2 -10 -8 -16 -10 -12 -3 4 6 3 14 -3 18 -6 4 -8 11 -5
16 4 5 -2 6 -12 2 -15 -6 -16 -4 -5 9 11 13 7 16 -28 22 -23 3 -45 4 -51 1 -5
-4 -9 -2 -9 3 0 5 -14 6 -31 4 -41 -6 -36 17 9 38 17 8 32 22 32 30 0 12 2 12
8 2 5 -7 16 -10 25 -6 15 6 21 25 20 62 -1 10 6 12 23 8 14 -4 24 -2 24 4 0 5
10 11 23 11 20 1 20 2 2 6 -11 3 -24 10 -30 15 -7 7 -1 9 18 4 16 -4 27 -2 27
4 0 5 -6 10 -12 10 -7 0 -5 5 5 11 9 6 15 14 13 18 -3 4 0 8 7 9 44 6 76 15
72 22 -3 4 -20 7 -37 5 -18 -2 -42 -1 -53 3 -18 5 -17 7 10 18 25 11 50 12
127 5z m-5142 -5 c0 -2 -7 -6 -15 -10 -8 -3 -15 -1 -15 4 0 6 7 10 15 10 8 0
15 -2 15 -4z m5680 -42 c0 -8 -4 -12 -10 -9 -5 3 -10 13 -10 21 0 8 5 12 10 9
6 -3 10 -13 10 -21z m-3230 -4 c0 -5 -5 -10 -11 -10 -5 0 -7 5 -4 10 3 6 8 10
11 10 2 0 4 -4 4 -10z m3849 -11 c-16 -10 -23 -4 -14 10 3 6 11 8 17 5 6 -4 5
-9 -3 -15z m-6239 1 c0 -5 -4 -10 -10 -10 -5 0 -10 5 -10 10 0 6 5 10 10 10 6
0 10 -4 10 -10z m2232 -69 c-7 -4 -12 -13 -10 -18 2 -6 -1 -11 -7 -12 -5 -1
-10 4 -10 9 0 6 -7 15 -15 21 -12 8 -10 9 7 4 12 -3 24 -1 28 5 4 6 10 9 13 5
4 -3 1 -10 -6 -14z m3903 8 c11 -16 1 -19 -13 -3 -7 8 -8 14 -3 14 5 0 13 -5
16 -11z m131 -15 c1 -25 -22 -49 -32 -32 -4 6 1 17 12 25 16 12 17 15 4 24
-13 9 -13 10 0 6 8 -2 15 -12 16 -23z m-1473 1 c-3 -9 -8 -14 -10 -11 -3 3 -2
9 2 15 9 16 15 13 8 -4z m1283 -36 c5 -8 9 -8 14 1 5 7 8 2 8 -13 0 -25 -1
-26 -24 -9 -13 9 -24 20 -24 25 0 11 18 8 26 -4z m-3723 -10 c-7 -7 -7 -21 2
-47 12 -35 12 -37 -21 -69 -39 -37 -46 -39 -65 -17 -18 21 -21 128 -3 113 7
-6 10 -18 7 -27 -4 -14 -3 -14 5 -3 6 8 18 16 27 17 25 4 31 14 9 14 -16 1
-15 3 6 15 30 17 48 19 33 4z m-183 -9 c0 -5 -2 -10 -4 -10 -3 0 -8 5 -11 10
-3 6 -1 10 4 10 6 0 11 -4 11 -10z m55 4 c13 -5 14 -9 3 -15 -11 -8 -11 -11 1
-18 8 -5 11 -16 8 -26 -4 -9 1 -31 10 -48 19 -36 25 -59 13 -52 -12 8 -61 -21
-52 -31 4 -5 -2 -1 -14 9 -11 9 -23 15 -26 12 -3 -3 -8 2 -12 11 -4 11 -2 14
6 11 7 -3 21 -8 31 -12 9 -4 17 -3 17 3 0 5 -10 12 -21 15 -15 4 -20 11 -15
23 4 11 2 15 -8 11 -10 -4 -13 -1 -9 9 3 8 12 13 20 10 8 -3 16 -6 18 -6 2 0
1 -9 -2 -20 -8 -28 10 -25 24 5 7 16 8 25 1 25 -7 0 -6 5 1 14 7 8 8 16 3 18
-9 3 -26 58 -18 58 2 0 12 -3 21 -6z m65 -10 c0 -8 -5 -12 -10 -9 -6 4 -8 11
-5 16 9 14 15 11 15 -7z m3714 -48 c-3 -9 -10 -16 -15 -16 -4 0 -5 -8 -2 -17
6 -16 5 -16 -10 -4 -18 14 -15 43 6 69 9 11 12 11 19 -2 4 -8 5 -21 2 -30z
m-370 18 c3 -8 2 -12 -4 -9 -6 3 -10 10 -10 16 0 14 7 11 14 -7z m464 -29 c-3
-3 -13 7 -23 22 l-17 28 23 -22 c12 -12 20 -25 17 -28z m-504 9 c3 -8 2 -12
-4 -9 -6 3 -10 10 -10 16 0 14 7 11 14 -7z m379 -75 c-4 -15 -8 -17 -14 -8 -6
11 4 28 18 29 0 0 -1 -9 -4 -21z m-93 -40 c0 -4 -7 -6 -15 -3 -8 4 -15 10 -15
15 0 4 7 6 15 3 8 -4 15 -10 15 -15z m277 -4 c0 -8 -4 -15 -9 -15 -4 0 -8 7
-8 15 0 8 4 15 8 15 5 0 9 -7 9 -15z m-3984 -33 c-3 -12 -9 -22 -14 -22 -5 0
-3 11 3 25 13 30 20 28 11 -3z m3467 24 c0 -2 -8 -10 -17 -17 -16 -13 -17 -12
-4 4 13 16 21 21 21 13z m-78 -36 c3 -16 1 -30 -4 -30 -4 0 -8 6 -8 14 0 8 -3
21 -6 30 -3 9 -2 16 4 16 5 0 12 -13 14 -30z m588 -1 c0 -5 -7 -9 -15 -9 -9 0
-15 9 -15 21 0 18 2 19 15 9 8 -7 15 -16 15 -21z m-255 -9 c3 -5 2 -10 -4 -10
-5 0 -13 5 -16 10 -3 6 -2 10 4 10 5 0 13 -4 16 -10z m245 -24 c0 -3 -4 -8
-10 -11 -5 -3 -10 -1 -10 4 0 6 5 11 10 11 6 0 10 -2 10 -4z m-4658 -36 c-21
-17 -34 -45 -25 -54 4 -3 13 0 21 7 13 10 14 9 7 -3 -7 -12 -6 -13 7 -3 8 7
18 10 21 6 8 -7 -12 -35 -22 -29 -3 2 -6 -9 -7 -25 -1 -23 2 -27 12 -18 7 6
10 17 7 25 -3 8 0 14 6 14 6 0 18 15 26 33 9 19 12 22 9 8 -4 -17 -2 -22 7
-19 8 3 12 14 11 24 -2 10 -1 16 3 12 3 -3 7 -12 9 -20 1 -7 6 -20 11 -28 8
-13 7 -13 -8 -1 -23 19 -21 -1 3 -32 11 -14 20 -29 20 -34 0 -4 -8 1 -16 12
-15 19 -15 19 -12 1 3 -22 -32 -32 -44 -13 -5 9 -10 8 -20 -2 -7 -8 -8 -11 -2
-8 16 9 27 -22 14 -38 -5 -6 -7 -15 -3 -19 10 -10 11 -46 1 -46 -4 0 -8 11 -8
24 0 28 -20 47 -20 19 -1 -10 -10 -29 -21 -42 -17 -21 -22 -22 -30 -10 -14 23
-10 33 7 18 15 -12 16 -11 10 8 -4 13 -1 26 8 36 8 8 13 17 9 20 -7 8 -32 -16
-26 -25 2 -5 -8 -8 -24 -7 -27 0 -27 1 -5 9 12 5 22 14 22 21 0 6 -7 8 -16 5
-14 -6 -15 -4 -4 9 10 11 15 13 20 4 6 -8 9 -8 14 0 4 6 11 9 16 6 5 -3 11 -1
15 5 3 5 2 10 -4 10 -6 0 -15 10 -22 21 -7 13 -7 19 -1 15 6 -3 13 -2 16 3 4
5 2 12 -4 16 -23 14 -29 42 -15 68 7 14 11 27 10 29 -2 2 5 4 16 4 19 0 19 -1
1 -16z m4643 0 c3 -5 1 -10 -4 -10 -6 0 -11 5 -11 10 0 6 2 10 4 10 3 0 8 -4
11 -10z m-551 -16 c9 -23 7 -36 -3 -30 -12 8 -21 46 -11 46 4 0 11 -7 14 -16z
m-5304 -34 c0 -5 -8 -10 -17 -10 -15 0 -16 2 -3 10 19 12 20 12 20 0z m5408
-30 c0 -22 -7 -47 -15 -57 -13 -17 -14 -17 -6 2 5 11 8 37 7 58 0 20 2 37 7
37 4 0 7 -18 7 -40z m-343 10 c3 -6 -1 -7 -9 -4 -18 7 -21 14 -7 14 6 0 13 -4
16 -10z m-3655 -20 c0 -5 -5 -10 -11 -10 -5 0 -7 5 -4 10 3 6 8 10 11 10 2 0
4 -4 4 -10z m56 -3 c18 7 18 6 1 -12 -16 -15 -20 -16 -28 -4 -5 8 -9 19 -9 24
0 6 4 4 8 -3 5 -8 16 -10 28 -5z m3358 -3 c5 -14 4 -15 -9 -4 -17 14 -19 20
-6 20 5 0 12 -7 15 -16z m-3389 -60 c1 -49 -3 -58 -21 -43 -11 9 -12 15 -3 26
10 11 9 12 -5 7 -9 -3 -16 -2 -16 4 0 5 7 13 16 16 10 4 14 12 10 22 -4 10 -1
14 6 12 7 -3 13 -22 13 -44z m-35 26 c0 -5 -2 -10 -4 -10 -3 0 -8 5 -11 10 -3
6 -1 10 4 10 6 0 11 -4 11 -10z m3123 -9 c4 -1 7 -6 7 -13 0 -9 -3 -9 -11 -1
-6 6 -18 9 -25 6 -8 -3 -14 -1 -14 5 0 6 8 9 18 7 9 -2 20 -4 25 -4z m-3063
-17 c0 -8 -4 -12 -10 -9 -5 3 -10 10 -10 16 0 5 5 9 10 9 6 0 10 -7 10 -16z
m3410 -4 c0 -5 -2 -10 -4 -10 -3 0 -8 5 -11 10 -3 6 -1 10 4 10 6 0 11 -4 11
-10z m657 -25 c0 -20 -4 -19 -17 5 -8 15 -8 18 3 14 8 -3 14 -11 14 -19z m387
-245 c15 -646 27 -817 75 -1065 14 -75 60 -235 77 -267 8 -15 15 -43 16 -61 1
-39 -27 -97 -47 -97 -8 0 -15 -6 -15 -14 0 -8 -18 -29 -40 -47 -22 -19 -53
-45 -69 -59 -43 -37 -304 -166 -351 -173 -11 -2 -26 -9 -32 -15 -7 -7 -18 -12
-25 -12 -7 0 -36 -11 -63 -24 -28 -13 -50 -20 -50 -16 0 5 -12 3 -27 -5 -35
-17 -98 -35 -138 -38 -17 -2 -35 -6 -40 -9 -6 -3 -41 -9 -80 -13 -38 -5 -83
-10 -100 -12 -66 -10 -195 -11 -200 -3 -3 5 -16 6 -28 1 -19 -7 -149 -6 -252
2 -27 2 -57 32 -54 55 2 18 -14 51 -23 46 -5 -3 -4 -12 3 -20 6 -8 7 -14 2
-14 -14 0 -48 31 -62 58 -11 20 -9 22 11 22 15 0 19 -3 11 -8 -9 -6 -7 -11 7
-20 12 -7 20 -8 20 -2 0 5 -6 10 -12 10 -7 0 2 8 20 17 33 16 33 16 14 37 -15
16 -17 28 -12 49 5 16 4 27 -1 27 -6 0 -8 4 -4 10 3 5 12 7 20 4 12 -5 12 -1
2 20 -7 14 -18 26 -24 26 -7 0 -13 5 -13 10 0 7 6 7 19 1 14 -8 20 -7 25 4 7
18 4 31 -6 27 -5 -1 -8 2 -8 7 0 5 5 11 12 13 7 3 9 14 4 31 -4 17 -11 25 -18
21 -6 -4 -9 -1 -6 7 5 16 37 19 56 6 7 -6 16 -7 19 -3 4 4 3 10 -3 14 -6 4
-16 17 -23 30 -7 12 -17 20 -23 16 -7 -5 -8 -2 -4 5 5 7 0 21 -9 31 -17 18
-17 19 4 15 25 -5 28 10 4 24 -10 5 -14 13 -9 18 5 4 11 3 13 -4 2 -7 12 -9
20 -6 12 5 15 2 10 -10 -3 -9 -2 -17 2 -17 5 0 11 6 14 13 3 9 8 9 23 -3 19
-14 19 -14 0 7 -10 13 -22 20 -26 18 -5 -3 -3 6 3 20 12 26 31 32 42 15 3 -5
11 -10 17 -10 6 0 6 6 -2 15 -10 12 -10 21 -2 40 9 20 9 23 -3 18 -17 -6 -19
5 -6 26 9 14 -5 61 -18 61 -4 0 -7 9 -7 20 0 10 2 17 5 15 8 -8 31 17 31 33 0
14 -2 13 -12 -1 -11 -15 -13 -13 -13 18 0 19 5 35 10 35 6 1 -1 10 -14 21 -19
15 -22 22 -12 28 9 6 10 11 2 15 -6 4 -11 15 -11 25 0 10 -12 23 -27 30 -20 9
-24 14 -14 21 8 4 11 15 8 24 -3 8 -2 18 4 21 14 9 1 25 -15 19 -8 -3 -17 -1
-21 5 -6 10 -1 13 34 15 8 1 16 6 18 13 3 8 -3 11 -16 8 -22 -4 -40 13 -24 24
6 3 7 15 2 26 -6 17 -8 17 -8 3 -1 -17 -2 -17 -19 0 -17 16 -17 17 6 26 16 5
21 13 17 24 -3 8 0 19 6 23 9 5 8 12 -4 24 -25 24 -21 27 14 10 17 -9 33 -14
36 -11 3 3 -2 8 -11 12 -23 9 -20 20 7 28 21 7 21 7 2 16 -18 7 -15 10 25 30
25 12 34 19 22 16 -22 -4 -22 -3 -9 12 7 9 17 25 21 36 4 12 13 17 26 13 24
-6 37 8 15 17 -22 8 -18 36 5 36 22 0 27 -15 8 -24 -7 -3 -2 -3 11 0 14 4 21
2 17 -4 -3 -5 0 -12 7 -15 9 -3 12 5 10 32 -2 28 -1 32 6 16 8 -17 10 -18 10
-2 1 18 26 23 36 7 8 -12 72 -13 79 -1 3 5 17 9 31 9 14 0 33 6 43 14 18 15
82 24 82 11 0 -5 11 -9 25 -9 18 -1 25 3 25 16 0 28 18 34 61 20 29 -10 38
-18 34 -29 -3 -11 0 -9 10 3 8 11 15 28 15 37 0 12 17 24 52 37 52 19 84 19
72 0 -3 -5 3 -4 14 3 11 7 18 19 15 26 -3 7 2 13 11 13 18 0 20 -13 7 -39 -9
-15 -6 -17 20 -13 21 3 29 10 29 25 0 20 0 20 -14 2 -13 -18 -13 -17 -13 7 0
18 4 25 13 21 10 -4 12 0 8 11 -4 12 -2 15 9 10 8 -3 18 -1 22 5 3 6 17 8 31
5 22 -6 25 -2 24 21 -1 3 6 13 15 22 9 8 13 23 10 31 -3 8 0 19 7 24 20 12 34
10 20 -4 -15 -15 -16 -48 -2 -48 6 0 15 11 20 24 5 14 18 30 29 36 17 9 20 8
15 -5 -4 -8 -1 -15 6 -15 7 0 10 8 7 20 -3 12 1 23 10 29 10 5 14 16 11 29 -4
16 -2 19 10 15 12 -5 14 -2 8 13 -5 14 -4 16 4 8 9 -9 9 -17 1 -32 -6 -11 -11
-27 -10 -34 0 -7 4 -3 9 9 11 28 56 41 73 22 7 -8 11 -13 10 -11 -1 2 2 15 7
28 6 16 6 24 -1 24 -6 0 -8 4 -4 9 3 5 1 12 -5 16 -13 8 -13 25 1 25 5 0 8 -4
5 -9 -3 -5 1 -12 10 -15 8 -3 12 -2 9 4 -4 6 4 9 17 7 17 -1 22 3 20 16 -2 10
3 17 13 17 8 0 15 4 15 8 0 4 15 23 33 42 35 36 48 61 52 94 1 11 7 22 13 24
7 2 12 12 12 21 0 16 10 34 16 29 1 -2 5 -122 8 -268z m-476 235 c-3 -3 -9 2
-12 12 -6 14 -5 15 5 6 7 -7 10 -15 7 -18z m-880 -2 c-6 -7 -14 -10 -19 -7
-15 9 -10 20 10 20 15 0 17 -3 9 -13z m56 1 c3 -8 2 -12 -4 -9 -6 3 -10 10
-10 16 0 14 7 11 14 -7z m1026 0 c0 -2 -18 -3 -40 -2 -23 1 -36 4 -30 8 10 6
70 1 70 -6z m-4226 -20 c12 -12 16 -12 16 -2 0 10 2 10 9 -1 13 -20 2 -41 -21
-41 -10 0 -16 5 -13 10 3 6 2 10 -4 10 -5 0 -9 9 -8 20 2 24 2 24 21 4z m76
-6 c12 4 12 2 3 -8 -10 -11 -15 -11 -28 0 -8 7 -15 18 -15 24 0 6 6 4 13 -5 7
-9 19 -14 27 -11z m3470 2 c10 -19 9 -20 -17 -14 -28 7 -28 7 -9 -15 11 -11
25 -21 33 -21 7 0 13 -2 13 -4 0 -2 3 -12 7 -21 5 -14 2 -16 -18 -10 -13 4
-36 18 -51 30 l-26 22 26 27 c15 14 28 26 29 26 1 0 7 -9 13 -20z m467 -5 c0
-11 -4 -12 -14 -4 -7 6 -13 15 -13 20 0 5 6 6 13 3 8 -3 14 -11 14 -19z m88
15 c3 -5 2 -10 -4 -10 -5 0 -13 5 -16 10 -3 6 -2 10 4 10 5 0 13 -4 16 -10z
m-3840 -21 c11 -16 1 -19 -13 -3 -7 8 -8 14 -3 14 5 0 13 -5 16 -11z m4175
-23 c0 -3 -4 -8 -10 -11 -5 -3 -10 -1 -10 4 0 6 5 11 10 11 6 0 10 -2 10 -4z
m-817 -47 c6 -21 5 -21 -18 1 -14 13 -22 27 -19 32 8 12 31 -8 37 -33z m537
21 c6 -11 9 -20 7 -20 -2 0 -12 9 -22 20 -10 11 -13 20 -7 20 6 0 16 -9 22
-20z m-4115 -12 c5 4 5 2 2 -4 -4 -7 -18 -9 -34 -6 -20 4 -23 7 -10 10 9 2 15
9 11 15 -3 7 1 4 9 -5 8 -10 18 -14 22 -10z m4330 12 c-3 -5 -11 -10 -16 -10
-6 0 -7 5 -4 10 3 6 11 10 16 10 6 0 7 -4 4 -10z m-865 -19 c14 -27 -3 -34
-23 -10 -21 24 -21 29 -2 29 8 0 19 -9 25 -19z m-50 -1 c0 -5 -4 -10 -10 -10
-5 0 -10 5 -10 10 0 6 5 10 10 10 6 0 10 -4 10 -10z m930 -10 c0 -5 -4 -10
-10 -10 -5 0 -10 5 -10 10 0 6 5 10 10 10 6 0 10 -4 10 -10z m-987 -40 c-3
-11 -9 -20 -15 -20 -5 0 -4 9 2 20 6 11 12 20 14 20 2 0 2 -9 -1 -20z m251
-39 c-7 -7 -34 21 -34 36 0 10 6 8 19 -8 11 -13 18 -26 15 -28z m-60 4 c-4 -8
-10 -12 -15 -9 -11 6 -2 24 11 24 5 0 7 -7 4 -15z m-193 -32 c-8 -15 -10 -15
-11 -2 0 17 10 32 18 25 2 -3 -1 -13 -7 -23z m440 -20 c13 -16 12 -17 -3 -4
-10 7 -18 15 -18 17 0 8 8 3 21 -13z m-584 -45 c-3 -7 -5 -2 -5 12 0 14 2 19
5 13 2 -7 2 -19 0 -25z m83 22 c0 -5 -2 -10 -4 -10 -3 0 -8 5 -11 10 -3 6 -1
10 4 10 6 0 11 -4 11 -10z m815 -50 c-3 -11 -11 -20 -16 -20 -13 0 -11 18 2
22 8 3 6 9 -4 20 -9 8 -13 18 -10 21 11 12 34 -23 28 -43z m-809 -26 c-16 -31
-18 -30 -18 16 0 45 1 46 18 28 14 -14 14 -18 0 -44z m-3216 26 c0 -5 -2 -10
-4 -10 -3 0 -8 5 -11 10 -3 6 -1 10 4 10 6 0 11 -4 11 -10z m3962 -16 c-7 -12
-11 -13 -17 -4 -4 7 -2 16 6 21 18 11 23 4 11 -17z m-434 -19 c-3 -3 -9 2 -12
12 -6 14 -5 15 5 6 7 -7 10 -15 7 -18z m-1938 11 c0 -3 -4 -8 -10 -11 -5 -3
-10 -1 -10 4 0 6 5 11 10 11 6 0 10 -2 10 -4z m-1523 -81 c0 -22 -23 -18 -24
4 -1 12 3 18 11 15 7 -3 13 -11 13 -19z m3843 13 c0 -6 -3 -8 -7 -5 -3 4 -12
2 -20 -5 -11 -8 -12 -7 -7 6 7 18 34 22 34 4z m-3814 -7 c-8 -12 20 -22 42
-15 14 5 15 4 2 -5 -8 -6 -11 -11 -7 -11 4 0 3 -9 -3 -19 -8 -15 -7 -19 6 -17
9 1 20 9 25 17 10 16 10 15 15 -23 1 -16 -2 -28 -7 -28 -6 0 -7 5 -3 12 5 8 2
9 -10 5 -10 -4 -21 -7 -24 -7 -4 0 0 -5 8 -10 9 -6 10 -10 3 -10 -6 0 -18 8
-25 18 -7 11 -23 24 -35 30 -20 11 -21 14 -7 42 9 16 18 30 20 30 3 0 3 -4 0
-9z m2548 -27 c3 -8 2 -12 -4 -9 -6 3 -10 10 -10 16 0 14 7 11 14 -7z m-1055
-21 c-7 -10 -14 -19 -15 -21 -1 -2 -4 4 -8 13 -3 9 -2 13 3 10 5 -3 12 -1 16
5 3 5 9 10 12 10 3 0 -1 -8 -8 -17z m1656 -73 c3 -5 1 -10 -4 -10 -6 0 -11 5
-11 10 0 6 2 10 4 10 3 0 8 -4 11 -10z m-3045 -15 c0 -2 -9 -3 -19 -2 -11 0
-18 5 -15 9 4 6 34 0 34 -7z m1458 -23 c-16 -3 -18 -6 -7 -12 7 -5 10 -12 6
-16 -4 -4 -13 -2 -20 5 -9 10 -8 15 7 27 11 8 14 14 7 14 -7 0 -9 5 -6 11 5 6
12 4 20 -8 12 -16 11 -18 -7 -21z m62 -27 c0 -21 -5 -35 -12 -35 -10 0 -9 -3
1 -9 10 -6 10 -10 1 -16 -28 -18 -45 49 -20 80 20 24 30 18 30 -20z m-1090
-50 c0 -2 -9 -3 -19 -2 -11 0 -18 5 -15 9 4 6 34 0 34 -7z m-40 -29 c0 -2 -7
-9 -15 -16 -13 -11 -14 -10 -9 4 5 14 24 23 24 12z m2455 -6 c-3 -5 -11 -10
-16 -10 -6 0 -7 5 -4 10 3 6 11 10 16 10 6 0 7 -4 4 -10z m-2440 -20 c-3 -5
-1 -10 4 -10 6 0 11 -7 11 -16 0 -14 -3 -14 -15 -4 -17 14 -20 40 -4 40 5 0 7
-4 4 -10z m-39 -29 c8 7 14 7 14 1 0 -12 -26 -23 -34 -15 -3 4 -6 11 -5 17 0
6 3 5 6 -2 4 -10 8 -10 19 -1z m2461 -7 c-3 -3 -12 -4 -19 -1 -8 3 -5 6 6 6
11 1 17 -2 13 -5z m-2374 -58 c-3 -4 -9 -2 -14 5 -13 22 -11 31 5 17 8 -7 12
-17 9 -22z m-48 14 c-4 -6 -1 -18 6 -26 10 -12 9 -13 -5 -8 -16 6 -21 25 -9
37 10 11 15 8 8 -3z m2350 -30 c3 -5 -1 -10 -9 -10 -9 0 -16 5 -16 10 0 6 4
10 9 10 6 0 13 -4 16 -10z m-2220 -90 c3 -6 -1 -7 -9 -4 -18 7 -21 14 -7 14 6
0 13 -4 16 -10z m2179 -6 c3 -8 2 -12 -4 -9 -6 3 -10 10 -10 16 0 14 7 11 14
-7z m-4404 -264 c6 -11 8 -20 6 -20 -3 0 -10 9 -16 20 -6 11 -8 20 -6 20 3 0
10 -9 16 -20z m2845 -22 c5 4 5 1 1 -6 -6 -10 -11 -10 -22 -1 -8 6 -14 17 -14
23 0 6 7 3 14 -6 7 -10 17 -14 21 -10z m1639 -113 c3 -8 1 -15 -4 -15 -6 0
-10 7 -10 15 0 8 2 15 4 15 2 0 6 -7 10 -15z m-1460 -14 c26 -29 18 -51 -14
-39 -15 6 -20 12 -12 15 6 3 12 12 12 21 0 14 -2 15 -10 2 -5 -8 -12 -11 -15
-8 -8 8 2 28 14 28 4 0 16 -9 25 -19z m1460 -110 c3 -5 -1 -11 -9 -14 -9 -4
-12 -1 -8 9 6 16 10 17 17 5z m36 6 c0 -2 -10 -16 -22 -33 -23 -29 -48 -42
-48 -24 0 6 4 10 9 10 5 0 19 11 32 25 23 24 29 28 29 22z m-68 -129 c-9 -9
-12 -7 -12 10 0 16 -4 20 -17 16 -15 -5 -16 -4 -3 5 21 15 50 -13 32 -31z
m-15 -140 c-3 -8 -6 -5 -6 6 -1 11 2 17 5 13 3 -3 4 -12 1 -19z m-52 -229 c11
-17 -1 -21 -15 -4 -8 9 -8 15 -2 15 6 0 14 -5 17 -11z m-14 -31 c1 -7 1 -16 0
-20 0 -4 5 -5 13 -2 7 3 16 -2 20 -11 9 -24 -24 -32 -41 -9 -9 12 -10 20 -3
22 8 3 7 8 -1 18 -8 10 -8 14 0 14 6 0 12 -6 12 -12z m-31 -117 c0 -17 -18
-21 -24 -6 -3 9 0 15 9 15 8 0 15 -4 15 -9z m28 -29 c2 -7 -2 -10 -12 -6 -9 3
-16 11 -16 16 0 13 23 5 28 -10z"/>
<path d="M6065 8210 c-10 -11 -14 -20 -8 -20 5 0 18 9 28 20 10 11 14 20 8 20
-5 0 -18 -9 -28 -20z"/>
<path d="M6510 8059 c0 -5 5 -7 10 -4 6 3 10 8 10 11 0 2 -4 4 -10 4 -5 0 -10
-5 -10 -11z"/>
<path d="M5391 7664 c0 -11 3 -14 6 -6 3 7 2 16 -1 19 -3 4 -6 -2 -5 -13z"/>
<path d="M5513 7663 c-15 -6 -17 -33 -3 -33 5 0 14 9 20 20 11 20 6 23 -17 13z"/>
<path d="M5490 7426 c0 -28 22 -39 45 -23 22 17 9 47 -21 47 -19 0 -24 -5 -24
-24z"/>
<path d="M5372 7363 c-9 -16 -9 -24 0 -29 6 -4 8 -3 4 4 -3 5 -1 12 5 14 7 2
10 11 7 18 -3 11 -8 10 -16 -7z"/>
<path d="M5495 7230 c-3 -5 -2 -10 4 -10 5 0 13 5 16 10 3 6 2 10 -4 10 -5 0
-13 -4 -16 -10z"/>
<path d="M5430 7209 c0 -5 5 -7 10 -4 6 3 10 8 10 11 0 2 -4 4 -10 4 -5 0 -10
-5 -10 -11z"/>
<path d="M5525 7200 c-3 -5 -1 -10 5 -10 8 0 9 -11 5 -31 -9 -40 15 -36 26 4
4 16 3 25 -2 21 -5 -3 -9 2 -9 10 0 18 -16 21 -25 6z"/>
<path d="M5410 7151 c0 -6 4 -13 10 -16 6 -3 7 1 4 9 -7 18 -14 21 -14 7z"/>
<path d="M5640 7045 c0 -8 5 -15 10 -15 6 0 10 7 10 15 0 8 -4 15 -10 15 -5 0
-10 -7 -10 -15z"/>
<path d="M5620 7010 c0 -5 5 -10 10 -10 6 0 10 5 10 10 0 6 -4 10 -10 10 -5 0
-10 -4 -10 -10z"/>
<path d="M5744 7009 c-3 -6 -2 -15 3 -20 5 -5 9 -1 9 11 0 23 -2 24 -12 9z"/>
<path d="M6416 6762 c5 -4 21 -18 37 -31 19 -18 27 -20 27 -10 0 8 -13 22 -29
32 -29 17 -53 24 -35 9z"/>
<path d="M6425 6710 c-3 -5 -1 -10 4 -10 6 0 11 5 11 10 0 6 -2 10 -4 10 -3 0
-8 -4 -11 -10z"/>
<path d="M684 7201 c-1 -23 2 -26 11 -18 9 8 10 18 4 30 -13 23 -14 22 -15
-12z"/>
<path d="M705 7100 c3 -5 8 -10 11 -10 2 0 4 5 4 10 0 6 -5 10 -11 10 -5 0 -7
-4 -4 -10z"/>
<path d="M750 7010 c8 -5 20 -10 25 -10 6 0 3 5 -5 10 -8 5 -19 10 -25 10 -5
0 -3 -5 5 -10z"/>
<path d="M770 6860 c0 -5 5 -10 11 -10 5 0 7 5 4 10 -3 6 -8 10 -11 10 -2 0
-4 -4 -4 -10z"/>
<path d="M758 6788 c9 -9 15 -9 24 0 9 9 7 12 -12 12 -19 0 -21 -3 -12 -12z"/>
<path d="M5190 7046 c0 -9 5 -16 10 -16 6 0 10 4 10 9 0 6 -4 13 -10 16 -5 3
-10 -1 -10 -9z"/>
<path d="M5234 6909 c-6 -10 13 -39 26 -39 4 0 10 9 13 19 5 21 -28 37 -39 20z"/>
<path d="M5285 6880 c-3 -5 -1 -10 4 -10 6 0 11 5 11 10 0 6 -2 10 -4 10 -3 0
-8 -4 -11 -10z"/>
<path d="M5495 6710 c-3 -5 -1 -10 4 -10 6 0 11 5 11 10 0 6 -2 10 -4 10 -3 0
-8 -4 -11 -10z"/>
<path d="M1256 6667 c3 -10 9 -15 12 -12 3 3 0 11 -7 18 -10 9 -11 8 -5 -6z"/>
<path d="M1215 6660 c-4 -6 -12 -7 -18 -4 -8 5 -8 3 1 -7 16 -17 15 -30 -2
-23 -18 7 -30 -12 -15 -22 8 -4 9 -3 5 4 -4 7 -3 12 3 12 5 0 13 -9 16 -20 3
-11 14 -20 23 -20 15 1 16 2 1 13 -16 12 -19 43 -5 65 4 6 5 12 2 12 -3 0 -8
-5 -11 -10z"/>
<path d="M1310 6664 c0 -3 7 -12 15 -20 16 -17 18 -14 9 10 -6 15 -24 23 -24
10z"/>
<path d="M1340 6620 c-9 -6 -10 -10 -3 -10 6 0 15 5 18 10 8 12 4 12 -15 0z"/>
<path d="M1296 6580 c9 -16 17 -30 20 -30 8 0 -1 45 -11 52 -20 15 -23 7 -9
-22z"/>
<path d="M1400 6584 c0 -8 5 -12 10 -9 6 3 10 10 10 16 0 5 -4 9 -10 9 -5 0
-10 -7 -10 -16z"/>
<path d="M717 6629 c7 -7 15 -10 18 -7 3 3 -2 9 -12 12 -14 6 -15 5 -6 -5z"/>
<path d="M730 6590 c0 -5 8 -6 17 -3 12 5 15 2 10 -10 -3 -9 -3 -17 2 -17 13
0 20 11 14 26 -6 16 -43 19 -43 4z"/>
<path d="M807 6563 c-10 -9 -9 -41 2 -47 4 -3 8 8 7 24 -1 17 -1 30 -2 30 0 0
-4 -3 -7 -7z"/>
<path d="M736 6504 c-9 -22 -8 -24 10 -24 10 0 14 6 11 14 -3 8 -1 17 6 20 7
2 5 5 -4 5 -9 1 -20 -6 -23 -15z"/>
<path d="M6220 6645 c-14 -8 -20 -14 -14 -15 5 0 19 7 30 15 24 18 16 19 -16
0z"/>
<path d="M6391 6636 l-24 -13 29 0 c16 0 44 -3 62 -6 17 -3 32 -4 32 -1 0 3
-69 35 -74 34 0 -1 -12 -7 -25 -14z"/>
<path d="M5689 6483 l-24 -28 26 23 c14 12 29 19 34 15 4 -5 5 -2 1 5 -9 16
-9 16 -37 -15z"/>
<path d="M6255 6450 c-3 -5 -1 -10 4 -10 6 0 11 5 11 10 0 6 -2 10 -4 10 -3 0
-8 -4 -11 -10z"/>
<path d="M6280 6437 c0 -8 7 -14 15 -14 11 0 12 4 4 14 -6 7 -13 13 -15 13 -2
0 -4 -6 -4 -13z"/>
<path d="M5620 6236 c0 -49 7 -76 21 -76 4 0 6 7 3 15 -4 8 1 17 10 21 11 4
14 14 9 35 -4 21 -2 29 8 30 8 0 5 4 -6 9 -39 17 -45 12 -45 -34z"/>
<path d="M5665 6070 c3 -5 8 -10 11 -10 2 0 4 5 4 10 0 6 -5 10 -11 10 -5 0
-7 -4 -4 -10z"/>
<path d="M5366 6045 c4 -8 8 -15 10 -15 2 0 4 7 4 15 0 8 -4 15 -10 15 -5 0
-7 -7 -4 -15z"/>
<path d="M5850 5810 c0 -5 5 -10 11 -10 5 0 7 5 4 10 -3 6 -8 10 -11 10 -2 0
-4 -4 -4 -10z"/>
<path d="M5360 5536 c0 -8 4 -17 9 -21 6 -3 9 4 8 15 -1 23 -17 28 -17 6z"/>
<path d="M5892 5448 c-14 -14 -16 -32 -2 -23 6 3 7 -1 4 -9 -3 -9 -3 -24 2
-33 9 -21 8 -19 18 -60 4 -18 13 -33 20 -33 7 0 22 -12 32 -26 10 -15 29 -39
42 -54 12 -15 22 -32 22 -36 1 -5 16 -16 35 -25 27 -13 37 -14 45 -4 6 7 6 15
-1 22 -6 6 -12 27 -15 49 -3 21 -11 45 -19 54 -20 22 -19 36 0 20 10 -8 15 -9
15 -1 0 6 -12 14 -26 17 -18 5 -22 9 -13 14 9 6 8 12 -4 25 -20 19 -21 27 -7
41 7 7 0 9 -20 8 -16 -1 -27 2 -24 7 5 8 -10 13 -20 7 -2 -2 -16 9 -30 25 -28
30 -36 33 -54 15z"/>
<path d="M6061 5354 c13 -16 39 -19 39 -5 0 5 -11 11 -25 13 -20 4 -23 3 -14
-8z"/>
<path d="M5531 5323 c-14 -3 -35 -12 -49 -21 -21 -13 -22 -16 -7 -25 9 -5 23
-6 31 -3 8 3 23 -3 33 -13 11 -11 28 -17 38 -15 10 3 38 1 62 -5 47 -10 91 0
91 21 0 35 -132 75 -199 61z"/>
<path d="M6940 5099 c0 -5 5 -7 10 -4 6 3 10 8 10 11 0 2 -4 4 -10 4 -5 0 -10
-5 -10 -11z"/>
<path d="M6937 5001 c3 -12 9 -21 14 -21 14 0 11 16 -5 29 -12 10 -13 8 -9 -8z"/>
<path d="M5915 4940 c3 -5 10 -10 16 -10 5 0 9 5 9 10 0 6 -7 10 -16 10 -8 0
-12 -4 -9 -10z"/>
<path d="M6135 4880 c3 -5 11 -10 16 -10 6 0 7 5 4 10 -3 6 -11 10 -16 10 -6
0 -7 -4 -4 -10z"/>
<path d="M6108 4866 c12 -10 20 -21 17 -26 -3 -5 4 -15 15 -22 25 -16 47 -87
30 -98 -16 -10 89 -140 114 -140 16 0 17 3 8 12 -7 7 -12 23 -12 36 0 17 -4
22 -14 19 -8 -3 -20 1 -26 8 -7 8 -16 12 -21 9 -5 -3 -9 1 -9 9 0 8 -7 20 -15
27 -11 9 -12 15 -2 25 10 11 16 9 37 -9 45 -40 60 -49 60 -37 0 6 -13 23 -30
38 -16 14 -30 32 -30 40 0 16 12 17 29 1 11 -11 13 -10 7 5 -3 10 -6 25 -6 33
0 9 -4 13 -9 10 -5 -3 -12 5 -15 19 -4 14 -11 25 -17 25 -8 0 -7 -5 1 -15 11
-13 10 -14 -3 -9 -9 3 -19 14 -22 23 -3 12 -16 17 -38 17 -17 0 -41 4 -52 8
-17 7 -16 6 3 -8z"/>
<path d="M5537 4853 c-4 -3 -7 -11 -7 -17 0 -6 5 -5 12 2 6 6 9 14 7 17 -3 3
-9 2 -12 -2z"/>
<path d="M5815 4840 c-3 -5 -1 -10 4 -10 6 0 11 5 11 10 0 6 -2 10 -4 10 -3 0
-8 -4 -11 -10z"/>
<path d="M5567 4833 c-11 -11 -8 -21 9 -27 13 -5 14 -4 6 7 -7 8 -9 17 -5 20
3 4 4 7 1 7 -2 0 -8 -3 -11 -7z"/>
<path d="M5630 4800 c6 -11 13 -20 15 -20 3 0 5 9 5 20 0 11 -7 20 -15 20 -13
0 -14 -4 -5 -20z"/>
<path d="M6090 4706 c0 -2 8 -10 18 -17 15 -13 16 -12 3 4 -13 16 -21 21 -21
13z"/>
<path d="M6760 4695 c-1 -5 -3 -29 -4 -53 -3 -37 -1 -40 10 -24 8 12 10 29 4
52 -4 19 -9 31 -10 25z"/>
<path d="M6130 4661 c0 -9 24 -21 42 -21 6 0 6 6 -2 15 -14 16 -40 20 -40 6z"/>
<path d="M6670 4660 c0 -5 10 -10 23 -10 18 0 19 2 7 10 -19 13 -30 13 -30 0z"/>
<path d="M6700 4625 c0 -8 7 -15 16 -15 14 0 14 3 4 15 -7 8 -14 15 -16 15 -2
0 -4 -7 -4 -15z"/>
<path d="M6781 4574 c0 -11 3 -14 6 -6 3 7 2 16 -1 19 -3 4 -6 -2 -5 -13z"/>
<path d="M6256 4553 c-4 -9 0 -23 9 -32 15 -15 15 -14 9 3 -6 16 -4 18 11 12
18 -7 18 -6 0 14 -22 24 -21 24 -29 3z"/>
<path d="M6410 4401 c0 -6 4 -13 10 -16 6 -3 7 1 4 9 -7 18 -14 21 -14 7z"/>
<path d="M6320 4355 c-7 -9 -11 -17 -9 -20 3 -2 10 5 17 15 14 24 10 26 -8 5z"/>
<path d="M6310 4280 c0 -5 5 -10 11 -10 5 0 7 5 4 10 -3 6 -8 10 -11 10 -2 0
-4 -4 -4 -10z"/>
<path d="M2494 6517 c1 -17 5 -23 16 -19 13 5 13 3 1 -11 -8 -10 -12 -19 -10
-22 3 -2 10 4 16 15 10 14 8 22 -6 39 l-19 22 2 -24z"/>
<path d="M7424 6065 c-3 -8 3 -26 14 -39 50 -65 54 -234 8 -411 -18 -66 -20
-113 -7 -133 6 -10 10 -5 14 17 4 17 22 65 42 106 19 42 35 82 35 90 0 8 7 34
14 57 37 108 26 253 -24 306 -24 26 -87 31 -96 7z"/>
<path d="M675 5800 c3 -5 11 -10 16 -10 6 0 7 5 4 10 -3 6 -11 10 -16 10 -6 0
-7 -4 -4 -10z"/>
<path d="M730 5604 c0 -8 5 -12 10 -9 6 4 8 11 5 16 -9 14 -15 11 -15 -7z"/>
<path d="M745 5510 c-3 -5 -2 -10 4 -10 5 0 13 5 16 10 3 6 2 10 -4 10 -5 0
-13 -4 -16 -10z"/>
<path d="M2966 4705 c-3 -8 -1 -15 4 -15 13 0 22 18 11 24 -5 3 -11 -1 -15 -9z"/>
<path d="M706 4664 c-5 -14 -4 -15 9 -4 17 14 19 20 6 20 -5 0 -12 -7 -15 -16z"/>
<path d="M810 4395 c-7 -9 -8 -15 -2 -15 5 0 12 7 16 15 3 8 4 15 2 15 -2 0
-9 -7 -16 -15z"/>
<path d="M813 4314 c0 -8 6 -14 14 -14 7 0 13 4 13 9 0 5 -6 11 -13 14 -8 3
-14 -1 -14 -9z"/>
<path d="M672 3935 c4 -4 0 -14 -8 -22 -14 -15 -11 -33 7 -33 6 0 7 5 4 10 -4
6 -2 17 5 25 8 10 8 15 -2 21 -7 4 -10 4 -6 -1z"/>
<path d="M768 3763 c7 -3 16 -2 19 1 4 3 -2 6 -13 5 -11 0 -14 -3 -6 -6z"/>
<path d="M5310 4160 c0 -5 7 -10 15 -10 8 0 15 5 15 10 0 6 -7 10 -15 10 -8 0
-15 -4 -15 -10z"/>
<path d="M5355 4160 c4 -6 11 -8 16 -5 14 9 11 15 -7 15 -8 0 -12 -5 -9 -10z"/>
<path d="M5604 4095 c8 -8 19 -15 25 -15 6 0 11 7 11 15 0 9 -10 15 -26 15
-23 0 -24 -2 -10 -15z"/>
<path d="M2905 4360 c3 -5 8 -10 11 -10 2 0 4 5 4 10 0 6 -5 10 -11 10 -5 0
-7 -4 -4 -10z"/>
<path d="M2895 4320 c3 -5 11 -10 16 -10 6 0 7 5 4 10 -3 6 -11 10 -16 10 -6
0 -7 -4 -4 -10z"/>
<path d="M6502 3555 c-40 -22 -42 -25 -22 -35 16 -8 20 -8 20 4 0 8 12 24 28
35 35 26 27 25 -26 -4z"/>
<path d="M6096 3393 c-4 -9 -1 -20 5 -24 7 -4 9 -15 5 -25 -6 -18 -5 -17 9 0
18 24 20 50 3 40 -8 -5 -9 -2 -5 9 3 10 2 17 -2 17 -5 0 -12 -8 -15 -17z"/>
<path d="M6055 3370 c-3 -6 1 -7 9 -4 18 7 21 14 7 14 -6 0 -13 -4 -16 -10z"/>
<path d="M5420 2790 c0 -5 5 -10 11 -10 5 0 7 5 4 10 -3 6 -8 10 -11 10 -2 0
-4 -4 -4 -10z"/>
<path d="M5390 2320 c0 -5 -8 -7 -17 -3 -15 5 -16 3 -5 -8 10 -11 15 -10 29 4
11 11 13 17 5 17 -7 0 -12 -4 -12 -10z"/>
<path d="M5380 2278 c0 -9 5 -20 11 -23 17 -11 20 0 4 21 -13 17 -14 17 -15 2z"/>
<path d="M2495 3500 c-3 -5 1 -10 10 -10 9 0 13 5 10 10 -3 6 -8 10 -10 10 -2
0 -7 -4 -10 -10z"/>
</g>
</svg>
